{
	"asset":{
		"version":"2.0",
		"generator":""
	},
	"scenes":[{
		"nodes":[0,
		1,
		2,
		3,
		4,
		5,
		6]
	}],
	"nodes":[{
		"name":"Mesh5",
		"mesh":0,
		"translation":[0.0,
		0.0,
		0.0],
		"rotation":[0.0,
		0.0,
		0.0,
		-1.0],
		"scale":[1.0,
		1.0,
		1.0]
	},
	{
		"name":"Mesh6",
		"mesh":1,
		"translation":[0.0,
		0.0,
		0.0],
		"rotation":[0.0,
		0.0,
		0.0,
		-1.0],
		"scale":[1.0,
		1.0,
		1.0]
	},
	{
		"name":"Mesh7.1",
		"mesh":2,
		"translation":[0.0,
		0.0,
		0.0],
		"rotation":[0.0,
		0.0,
		0.0,
		-1.0],
		"scale":[1.0,
		1.0,
		1.0]
	},
	{
		"name":"Mesh7",
		"mesh":3,
		"translation":[0.0,
		0.0,
		0.0],
		"rotation":[0.0,
		0.0,
		0.0,
		-1.0],
		"scale":[1.0,
		1.0,
		1.0]
	},
	{
		"name":"Mesh8",
		"mesh":4,
		"translation":[0.0,
		0.0,
		0.0],
		"rotation":[0.0,
		0.0,
		0.0,
		-1.0],
		"scale":[1.0,
		1.0,
		1.0]
	},
	{
		"name":"底座",
		"mesh":5
	},
	{
		"name":"Mesh10",
		"mesh":6,
		"translation":[0.0,
		0.0,
		0.0],
		"rotation":[0.0,
		0.0,
		0.0,
		-1.0],
		"scale":[1.0,
		1.0,
		1.0]
	}],
	"meshes":[{
		"name":"Mesh5",
		"primitives":[{
			"attributes":{
				"POSITION":1,
				"TEXCOORD_0":2
			},
			"indices":0,
			"material":0
		}]
	},
	{
		"name":"Mesh6",
		"primitives":[{
			"attributes":{
				"POSITION":10,
				"TEXCOORD_0":11
			},
			"indices":9,
			"material":0
		}]
	},
	{
		"name":"Mesh7.1",
		"primitives":[{
			"attributes":{
				"POSITION":19,
				"TEXCOORD_0":20
			},
			"indices":18,
			"material":1
		}]
	},
	{
		"name":"Mesh7",
		"primitives":[{
			"attributes":{
				"POSITION":28,
				"TEXCOORD_0":29
			},
			"indices":27,
			"material":1
		}]
	},
	{
		"name":"Mesh8",
		"primitives":[{
			"attributes":{
				"POSITION":37,
				"TEXCOORD_0":38
			},
			"indices":36,
			"material":2
		}]
	},
	{
		"name":"底座",
		"primitives":[{
			"attributes":{
				"POSITION":46,
				"TEXCOORD_0":47
			},
			"indices":45,
			"material":0
		}]
	},
	{
		"name":"Mesh10",
		"primitives":[{
			"attributes":{
				"POSITION":49,
				"TEXCOORD_0":50
			},
			"indices":48,
			"material":3
		}]
	}],
	"accessors":[{
		"type":"SCALAR",
		"bufferView":0,
		"componentType":5123,
		"count":276,
		"byteOffset":0,
		"min":[0],
		"max":[132]
	},
	{
		"type":"VEC3",
		"bufferView":1,
		"componentType":5126,
		"count":133,
		"byteOffset":0,
		"min":[68.75,
		0.15000000596046449,
		-72.16213989257813],
		"max":[121.78301239013672,
		37.79999923706055,
		-19.12912940979004]
	},
	{
		"type":"VEC2",
		"bufferView":1,
		"componentType":5126,
		"count":133,
		"byteOffset":12,
		"min":[-157.48031616210938,
		-146.63778686523438],
		"max":[157.48031616210938,
		1.0]
	},
	{
		"type":"SCALAR",
		"bufferView":2,
		"componentType":5126,
		"count":3,
		"byteOffset":0,
		"min":[0.0],
		"max":[3.0]
	},
	{
		"type":"VEC3",
		"bufferView":2,
		"componentType":5126,
		"count":3,
		"byteOffset":12,
		"min":[0.0,
		0.0,
		-12.01356029510498],
		"max":[13.005505561828614,
		0.0,
		0.0]
	},
	{
		"type":"SCALAR",
		"bufferView":3,
		"componentType":5126,
		"count":2,
		"byteOffset":0,
		"min":[0.0],
		"max":[3.0]
	},
	{
		"type":"VEC4",
		"bufferView":3,
		"componentType":5126,
		"count":2,
		"byteOffset":8,
		"min":[0.0,
		0.0,
		0.0,
		-1.0],
		"max":[0.0,
		0.0,
		0.0,
		-1.0]
	},
	{
		"type":"SCALAR",
		"bufferView":4,
		"componentType":5126,
		"count":2,
		"byteOffset":0,
		"min":[0.0],
		"max":[3.0]
	},
	{
		"type":"VEC3",
		"bufferView":4,
		"componentType":5126,
		"count":2,
		"byteOffset":8,
		"min":[1.0,
		1.0,
		1.0],
		"max":[1.0,
		1.0,
		1.0]
	},
	{
		"type":"SCALAR",
		"bufferView":5,
		"componentType":5123,
		"count":276,
		"byteOffset":0,
		"min":[0],
		"max":[132]
	},
	{
		"type":"VEC3",
		"bufferView":6,
		"componentType":5126,
		"count":133,
		"byteOffset":0,
		"min":[15.716991424560547,
		0.15000000596046449,
		-72.16213989257813],
		"max":[68.75,
		37.79999923706055,
		-19.12912940979004]
	},
	{
		"type":"VEC2",
		"bufferView":6,
		"componentType":5126,
		"count":133,
		"byteOffset":12,
		"min":[-157.48031616210938,
		-146.63778686523438],
		"max":[157.48031616210938,
		1.0]
	},
	{
		"type":"SCALAR",
		"bufferView":7,
		"componentType":5126,
		"count":3,
		"byteOffset":0,
		"min":[0.0],
		"max":[3.0]
	},
	{
		"type":"VEC3",
		"bufferView":7,
		"componentType":5126,
		"count":3,
		"byteOffset":12,
		"min":[-12.950397491455079,
		0.0,
		-12.509532928466797],
		"max":[0.0,
		0.0,
		0.0]
	},
	{
		"type":"SCALAR",
		"bufferView":8,
		"componentType":5126,
		"count":2,
		"byteOffset":0,
		"min":[0.0],
		"max":[3.0]
	},
	{
		"type":"VEC4",
		"bufferView":8,
		"componentType":5126,
		"count":2,
		"byteOffset":8,
		"min":[0.0,
		0.0,
		0.0,
		-1.0],
		"max":[0.0,
		0.0,
		0.0,
		-1.0]
	},
	{
		"type":"SCALAR",
		"bufferView":9,
		"componentType":5126,
		"count":2,
		"byteOffset":0,
		"min":[0.0],
		"max":[3.0]
	},
	{
		"type":"VEC3",
		"bufferView":9,
		"componentType":5126,
		"count":2,
		"byteOffset":8,
		"min":[1.0,
		1.0,
		1.0],
		"max":[1.0,
		1.0,
		1.0]
	},
	{
		"type":"SCALAR",
		"bufferView":10,
		"componentType":5123,
		"count":78,
		"byteOffset":0,
		"min":[0],
		"max":[43]
	},
	{
		"type":"VEC3",
		"bufferView":11,
		"componentType":5126,
		"count":44,
		"byteOffset":0,
		"min":[5.11090612411499,
		12.649999618530274,
		-65.79869079589844],
		"max":[68.75051879882813,
		12.800000190734864,
		-13.472790718078614]
	},
	{
		"type":"VEC2",
		"bufferView":11,
		"componentType":5126,
		"count":44,
		"byteOffset":12,
		"min":[-255.905517578125,
		-117.1102294921875],
		"max":[255.905517578125,
		4.937007904052734]
	},
	{
		"type":"SCALAR",
		"bufferView":12,
		"componentType":5126,
		"count":3,
		"byteOffset":0,
		"min":[0.0],
		"max":[3.0]
	},
	{
		"type":"VEC3",
		"bufferView":12,
		"componentType":5126,
		"count":3,
		"byteOffset":12,
		"min":[-56.38093185424805,
		0.0,
		-56.99812698364258],
		"max":[0.0,
		0.0,
		0.0]
	},
	{
		"type":"SCALAR",
		"bufferView":13,
		"componentType":5126,
		"count":2,
		"byteOffset":0,
		"min":[0.0],
		"max":[3.0]
	},
	{
		"type":"VEC4",
		"bufferView":13,
		"componentType":5126,
		"count":2,
		"byteOffset":8,
		"min":[0.0,
		0.0,
		0.0,
		-1.0],
		"max":[0.0,
		0.0,
		0.0,
		-1.0]
	},
	{
		"type":"SCALAR",
		"bufferView":14,
		"componentType":5126,
		"count":2,
		"byteOffset":0,
		"min":[0.0],
		"max":[3.0]
	},
	{
		"type":"VEC3",
		"bufferView":14,
		"componentType":5126,
		"count":2,
		"byteOffset":8,
		"min":[1.0,
		1.0,
		1.0],
		"max":[1.0,
		1.0,
		1.0]
	},
	{
		"type":"SCALAR",
		"bufferView":15,
		"componentType":5123,
		"count":78,
		"byteOffset":0,
		"min":[0],
		"max":[43]
	},
	{
		"type":"VEC3",
		"bufferView":16,
		"componentType":5126,
		"count":44,
		"byteOffset":0,
		"min":[68.75051879882813,
		12.649999618530274,
		-65.79869079589844],
		"max":[132.39012145996095,
		12.800000190734864,
		-13.472790718078614]
	},
	{
		"type":"VEC2",
		"bufferView":16,
		"componentType":5126,
		"count":44,
		"byteOffset":12,
		"min":[-350.3937072753906,
		-349.3936767578125],
		"max":[350.3937072753906,
		1.0]
	},
	{
		"type":"SCALAR",
		"bufferView":17,
		"componentType":5126,
		"count":3,
		"byteOffset":0,
		"min":[0.0],
		"max":[3.0]
	},
	{
		"type":"VEC3",
		"bufferView":17,
		"componentType":5126,
		"count":3,
		"byteOffset":12,
		"min":[0.0,
		0.0,
		-56.910343170166019],
		"max":[56.480411529541019,
		0.0,
		0.0]
	},
	{
		"type":"SCALAR",
		"bufferView":18,
		"componentType":5126,
		"count":2,
		"byteOffset":0,
		"min":[0.0],
		"max":[3.0]
	},
	{
		"type":"VEC4",
		"bufferView":18,
		"componentType":5126,
		"count":2,
		"byteOffset":8,
		"min":[0.0,
		0.0,
		0.0,
		-1.0],
		"max":[0.0,
		0.0,
		0.0,
		-1.0]
	},
	{
		"type":"SCALAR",
		"bufferView":19,
		"componentType":5126,
		"count":2,
		"byteOffset":0,
		"min":[0.0],
		"max":[3.0]
	},
	{
		"type":"VEC3",
		"bufferView":19,
		"componentType":5126,
		"count":2,
		"byteOffset":8,
		"min":[1.0,
		1.0,
		1.0],
		"max":[1.0,
		1.0,
		1.0]
	},
	{
		"type":"SCALAR",
		"bufferView":20,
		"componentType":5123,
		"count":24,
		"byteOffset":0,
		"min":[0],
		"max":[15]
	},
	{
		"type":"VEC3",
		"bufferView":21,
		"componentType":5126,
		"count":16,
		"byteOffset":0,
		"min":[82.00825500488281,
		37.79999923706055,
		-59.009952545166019],
		"max":[101.55975341796875,
		61.615699768066409,
		-39.45845031738281]
	},
	{
		"type":"VEC2",
		"bufferView":21,
		"componentType":5126,
		"count":16,
		"byteOffset":12,
		"min":[-108.26771545410156,
		-107.26771545410156],
		"max":[108.26771545410156,
		55.13385772705078]
	},
	{
		"type":"SCALAR",
		"bufferView":22,
		"componentType":5126,
		"count":3,
		"byteOffset":0,
		"min":[0.0],
		"max":[3.0]
	},
	{
		"type":"VEC3",
		"bufferView":22,
		"componentType":5126,
		"count":3,
		"byteOffset":12,
		"min":[0.0,
		0.0,
		0.0],
		"max":[0.05199332907795906,
		27.714126586914064,
		0.012016029097139836]
	},
	{
		"type":"SCALAR",
		"bufferView":23,
		"componentType":5126,
		"count":2,
		"byteOffset":0,
		"min":[0.0],
		"max":[3.0]
	},
	{
		"type":"VEC4",
		"bufferView":23,
		"componentType":5126,
		"count":2,
		"byteOffset":8,
		"min":[0.0,
		0.0,
		0.0,
		-1.0],
		"max":[0.0,
		0.0,
		0.0,
		-1.0]
	},
	{
		"type":"SCALAR",
		"bufferView":24,
		"componentType":5126,
		"count":2,
		"byteOffset":0,
		"min":[0.0],
		"max":[3.0]
	},
	{
		"type":"VEC3",
		"bufferView":24,
		"componentType":5126,
		"count":2,
		"byteOffset":8,
		"min":[1.0,
		1.0,
		1.0],
		"max":[1.0,
		1.0,
		1.0]
	},
	{
		"type":"SCALAR",
		"bufferView":25,
		"componentType":5123,
		"count":48,
		"byteOffset":0,
		"min":[0],
		"max":[24]
	},
	{
		"type":"VEC3",
		"bufferView":26,
		"componentType":5126,
		"count":25,
		"byteOffset":0,
		"min":[0.0,
		0.0,
		-97.5],
		"max":[137.5,
		0.15000000596046449,
		0.0]
	},
	{
		"type":"VEC2",
		"bufferView":26,
		"componentType":5126,
		"count":25,
		"byteOffset":12,
		"min":[-541.3385620117188,
		-382.8582763671875],
		"max":[541.3385620117188,
		1.0]
	},
	{
		"type":"SCALAR",
		"bufferView":27,
		"componentType":5123,
		"count":708,
		"byteOffset":0,
		"min":[0],
		"max":[355]
	},
	{
		"type":"VEC3",
		"bufferView":28,
		"componentType":5126,
		"count":356,
		"byteOffset":0,
		"min":[36.83624267578125,
		37.81713104248047,
		-58.113956451416019],
		"max":[54.59575271606445,
		62.782867431640628,
		-40.35444641113281]
	},
	{
		"type":"VEC2",
		"bufferView":28,
		"componentType":5126,
		"count":356,
		"byteOffset":12,
		"min":[-98.58558654785156,
		-97.29029846191406],
		"max":[98.58558654785156,
		47.60810852050781]
	},
	{
		"type":"SCALAR",
		"bufferView":29,
		"componentType":5126,
		"count":3,
		"byteOffset":0,
		"min":[0.0],
		"max":[3.0]
	},
	{
		"type":"VEC3",
		"bufferView":29,
		"componentType":5126,
		"count":3,
		"byteOffset":12,
		"min":[0.0,
		0.0,
		0.0],
		"max":[0.0,
		26.372346878051759,
		0.0]
	},
	{
		"type":"SCALAR",
		"bufferView":30,
		"componentType":5126,
		"count":2,
		"byteOffset":0,
		"min":[0.0],
		"max":[3.0]
	},
	{
		"type":"VEC4",
		"bufferView":30,
		"componentType":5126,
		"count":2,
		"byteOffset":8,
		"min":[0.0,
		0.0,
		0.0,
		-1.0],
		"max":[0.0,
		0.0,
		0.0,
		-1.0]
	},
	{
		"type":"SCALAR",
		"bufferView":31,
		"componentType":5126,
		"count":2,
		"byteOffset":0,
		"min":[0.0],
		"max":[3.0]
	},
	{
		"type":"VEC3",
		"bufferView":31,
		"componentType":5126,
		"count":2,
		"byteOffset":8,
		"min":[1.0,
		1.0,
		1.0],
		"max":[1.0,
		1.0,
		1.0]
	}],
	"bufferViews":[{
		"buffer":0,
		"byteOffset":0,
		"byteLength":552,
		"target":34963
	},
	{
		"buffer":0,
		"byteOffset":552,
		"byteLength":2660,
		"target":34962,
		"byteStride":20
	},
	{
		"buffer":1,
		"byteOffset":0,
		"byteLength":48
	},
	{
		"buffer":1,
		"byteOffset":48,
		"byteLength":40
	},
	{
		"buffer":1,
		"byteOffset":88,
		"byteLength":32
	},
	{
		"buffer":2,
		"byteOffset":0,
		"byteLength":552,
		"target":34963
	},
	{
		"buffer":2,
		"byteOffset":552,
		"byteLength":2660,
		"target":34962,
		"byteStride":20
	},
	{
		"buffer":3,
		"byteOffset":0,
		"byteLength":48
	},
	{
		"buffer":3,
		"byteOffset":48,
		"byteLength":40
	},
	{
		"buffer":3,
		"byteOffset":88,
		"byteLength":32
	},
	{
		"buffer":4,
		"byteOffset":0,
		"byteLength":156,
		"target":34963
	},
	{
		"buffer":4,
		"byteOffset":156,
		"byteLength":880,
		"target":34962,
		"byteStride":20
	},
	{
		"buffer":5,
		"byteOffset":0,
		"byteLength":48
	},
	{
		"buffer":5,
		"byteOffset":48,
		"byteLength":40
	},
	{
		"buffer":5,
		"byteOffset":88,
		"byteLength":32
	},
	{
		"buffer":6,
		"byteOffset":0,
		"byteLength":156,
		"target":34963
	},
	{
		"buffer":6,
		"byteOffset":156,
		"byteLength":880,
		"target":34962,
		"byteStride":20
	},
	{
		"buffer":7,
		"byteOffset":0,
		"byteLength":48
	},
	{
		"buffer":7,
		"byteOffset":48,
		"byteLength":40
	},
	{
		"buffer":7,
		"byteOffset":88,
		"byteLength":32
	},
	{
		"buffer":8,
		"byteOffset":0,
		"byteLength":48,
		"target":34963
	},
	{
		"buffer":8,
		"byteOffset":48,
		"byteLength":320,
		"target":34962,
		"byteStride":20
	},
	{
		"buffer":9,
		"byteOffset":0,
		"byteLength":48
	},
	{
		"buffer":9,
		"byteOffset":48,
		"byteLength":40
	},
	{
		"buffer":9,
		"byteOffset":88,
		"byteLength":32
	},
	{
		"buffer":10,
		"byteOffset":0,
		"byteLength":96,
		"target":34963
	},
	{
		"buffer":10,
		"byteOffset":96,
		"byteLength":500,
		"target":34962,
		"byteStride":20
	},
	{
		"buffer":11,
		"byteOffset":0,
		"byteLength":1416,
		"target":34963
	},
	{
		"buffer":11,
		"byteOffset":1416,
		"byteLength":7120,
		"target":34962,
		"byteStride":20
	},
	{
		"buffer":12,
		"byteOffset":0,
		"byteLength":48
	},
	{
		"buffer":12,
		"byteOffset":48,
		"byteLength":40
	},
	{
		"buffer":12,
		"byteOffset":88,
		"byteLength":32
	}],
	"buffers":[{
		"uri":"data:application/octet-stream;base64,",
		"byteLength":3212
	},
	{
		"uri":"data:application/octet-stream;base64,",
		"byteLength":120
	},
	{
		"uri":"data:application/octet-stream;base64,",
		"byteLength":3212
	},
	{
		"uri":"data:application/octet-stream;base64,",
		"byteLength":120
	},
	{
		"uri":"data:application/octet-stream;base64,",
		"byteLength":1036
	},
	{
		"uri":"data:application/octet-stream;base64,",
		"byteLength":120
	},
	{
		"uri":"data:application/octet-stream;base64,",
		"byteLength":1036
	},
	{
		"uri":"data:application/octet-stream;base64,",
		"byteLength":120
	},
	{
		"uri":"data:application/octet-stream;base64,",
		"byteLength":368
	},
	{
		"uri":"data:application/octet-stream;base64,",
		"byteLength":120
	},
	{
		"uri":"data:application/octet-stream;base64,",
		"byteLength":596
	},
	{
		"uri":"data:application/octet-stream;base64,",
		"byteLength":8536
	},
	{
		"uri":"data:application/octet-stream;base64,",
		"byteLength":120
	}],
	"materials":[{
		"pbrMetallicRoughness":{
			"baseColorFactor":[1.0,
			1.0,
			1.0,
			1.0],
			"metallicFactor":0.0,
			"roughnessFactor":0.5678071905112637
		},
		"emissiveFactor":[0.0,
		0.0,
		0.0],
		"alphaMode":"OPAQUE",
		"doubleSided":false,
		"name":"FrontColor"
	},
	{
		"pbrMetallicRoughness":{
			"baseColorFactor":[1.0,
			0.247058823529412,
			0.0,
			1.0],
			"metallicFactor":0.0,
			"roughnessFactor":0.5678071905112637
		},
		"emissiveFactor":[0.0,
		0.0,
		0.0],
		"alphaMode":"OPAQUE",
		"doubleSided":false,
		"name":"Color_B05"
	},
	{
		"pbrMetallicRoughness":{
			"baseColorFactor":[1.0,
			1.0,
			0.0,
			1.0],
			"metallicFactor":0.0,
			"roughnessFactor":0.5678071905112637
		},
		"emissiveFactor":[0.0,
		0.0,
		0.0],
		"alphaMode":"OPAQUE",
		"doubleSided":false,
		"name":"Color_E05"
	},
	{
		"pbrMetallicRoughness":{
			"baseColorFactor":[0.0,
			0.0,
			0.8,
			1.0],
			"metallicFactor":0.0,
			"roughnessFactor":0.5678071905112637
		},
		"emissiveFactor":[0.0,
		0.0,
		0.0],
		"alphaMode":"OPAQUE",
		"doubleSided":false,
		"name":"Color_I06"
	}],
	"animations":[{
		"samplers":[{
			"input":3,
			"interpolation":"LINEAR",
			"output":4
		},
		{
			"input":5,
			"interpolation":"LINEAR",
			"output":6
		},
		{
			"input":7,
			"interpolation":"LINEAR",
			"output":8
		},
		{
			"input":12,
			"interpolation":"LINEAR",
			"output":13
		},
		{
			"input":14,
			"interpolation":"LINEAR",
			"output":15
		},
		{
			"input":16,
			"interpolation":"LINEAR",
			"output":17
		},
		{
			"input":21,
			"interpolation":"LINEAR",
			"output":22
		},
		{
			"input":23,
			"interpolation":"LINEAR",
			"output":24
		},
		{
			"input":25,
			"interpolation":"LINEAR",
			"output":26
		},
		{
			"input":30,
			"interpolation":"LINEAR",
			"output":31
		},
		{
			"input":32,
			"interpolation":"LINEAR",
			"output":33
		},
		{
			"input":34,
			"interpolation":"LINEAR",
			"output":35
		},
		{
			"input":39,
			"interpolation":"LINEAR",
			"output":40
		},
		{
			"input":41,
			"interpolation":"LINEAR",
			"output":42
		},
		{
			"input":43,
			"interpolation":"LINEAR",
			"output":44
		},
		{
			"input":51,
			"interpolation":"LINEAR",
			"output":52
		},
		{
			"input":53,
			"interpolation":"LINEAR",
			"output":54
		},
		{
			"input":55,
			"interpolation":"LINEAR",
			"output":56
		}],
		"channels":[{
			"sampler":0,
			"target":{
				"node":0,
				"path":"translation"
			}
		},
		{
			"sampler":1,
			"target":{
				"node":0,
				"path":"rotation"
			}
		},
		{
			"sampler":2,
			"target":{
				"node":0,
				"path":"scale"
			}
		},
		{
			"sampler":3,
			"target":{
				"node":1,
				"path":"translation"
			}
		},
		{
			"sampler":4,
			"target":{
				"node":1,
				"path":"rotation"
			}
		},
		{
			"sampler":5,
			"target":{
				"node":1,
				"path":"scale"
			}
		},
		{
			"sampler":6,
			"target":{
				"node":2,
				"path":"translation"
			}
		},
		{
			"sampler":7,
			"target":{
				"node":2,
				"path":"rotation"
			}
		},
		{
			"sampler":8,
			"target":{
				"node":2,
				"path":"scale"
			}
		},
		{
			"sampler":9,
			"target":{
				"node":3,
				"path":"translation"
			}
		},
		{
			"sampler":10,
			"target":{
				"node":3,
				"path":"rotation"
			}
		},
		{
			"sampler":11,
			"target":{
				"node":3,
				"path":"scale"
			}
		},
		{
			"sampler":12,
			"target":{
				"node":4,
				"path":"translation"
			}
		},
		{
			"sampler":13,
			"target":{
				"node":4,
				"path":"rotation"
			}
		},
		{
			"sampler":14,
			"target":{
				"node":4,
				"path":"scale"
			}
		},
		{
			"sampler":15,
			"target":{
				"node":6,
				"path":"translation"
			}
		},
		{
			"sampler":16,
			"target":{
				"node":6,
				"path":"rotation"
			}
		},
		{
			"sampler":17,
			"target":{
				"node":6,
				"path":"scale"
			}
		}]
	}]
}