{
	"asset":{
		"version":"2.0",
		"generator":""
	},
	"scenes":[{
		"nodes":[0,
		1,
		2,
		3,
		4,
		5]
	}],
	"nodes":[{
		"name":"Mesh1",
		"translation":[-0.012366147711873055,
		0.0024274885654449465,
		0.0027628131210803987],
		"rotation":[0.0,
		0.0,
		0.0,
		-1.0],
		"scale":[1.0,
		1.0,
		1.0],
		"children":[6,
		7,
		8]
	},
	{
		"name":"Mesh5",
		"mesh":0,
		"translation":[0.11676723510026932,
		0.018427489325404168,
		0.0027628131210803987],
		"rotation":[0.0,
		0.0,
		0.0,
		-1.0],
		"scale":[1.0,
		1.0,
		1.0]
	},
	{
		"name":"Mesh2",
		"mesh":1,
		"translation":[0.006883852183818817,
		0.03842748701572418,
		-0.007737187203019857],
		"rotation":[0.0,
		0.0,
		0.0,
		-1.0],
		"scale":[1.0,
		1.0,
		1.0]
	},
	{
		"name":"Mesh6",
		"mesh":2,
		"translation":[0.0383838526904583,
		0.018427489325404168,
		-0.08345703780651093],
		"rotation":[0.0,
		0.0,
		0.0,
		-1.0],
		"scale":[1.0,
		1.0,
		1.0]
	},
	{
		"name":"Mesh3",
		"mesh":3,
		"translation":[-0.17950108647346497,
		0.03842748701572418,
		0.023262813687324525],
		"rotation":[0.0,
		0.0,
		0.0,
		-1.0],
		"scale":[1.0,
		1.0,
		1.0]
	},
	{
		"name":"Mesh7",
		"mesh":4,
		"translation":[-0.05236614868044853,
		0.04492748901247978,
		0.11612004041671753],
		"rotation":[0.0,
		0.0,
		0.0,
		-1.0],
		"scale":[1.0,
		1.0,
		1.0]
	},
	{
		"name":"Mesh1-Color_M08",
		"mesh":5,
		"translation":[0.0,
		0.0,
		0.0],
		"rotation":[0.0,
		0.0,
		0.0,
		-1.0],
		"scale":[1.0,
		1.0,
		1.0]
	},
	{
		"name":"Mesh1-Color_F06",
		"mesh":6
	},
	{
		"name":"Mesh1-Color_M00",
		"mesh":7
	}],
	"meshes":[{
		"name":"Mesh5",
		"primitives":[{
			"attributes":{
				"POSITION":7,
				"NORMAL":8,
				"TEXCOORD_0":9
			},
			"indices":6,
			"material":0
		}]
	},
	{
		"name":"Mesh2",
		"primitives":[{
			"attributes":{
				"POSITION":17,
				"NORMAL":18,
				"TEXCOORD_0":19
			},
			"indices":16,
			"material":0
		}]
	},
	{
		"name":"Mesh6",
		"primitives":[{
			"attributes":{
				"POSITION":27,
				"NORMAL":28,
				"TEXCOORD_0":29
			},
			"indices":26,
			"material":0
		}]
	},
	{
		"name":"Mesh3",
		"primitives":[{
			"attributes":{
				"POSITION":37,
				"NORMAL":38,
				"TEXCOORD_0":39
			},
			"indices":36,
			"material":0
		}]
	},
	{
		"name":"Mesh7",
		"primitives":[{
			"attributes":{
				"POSITION":47,
				"NORMAL":48,
				"TEXCOORD_0":49
			},
			"indices":46,
			"material":0
		}]
	},
	{
		"name":"Mesh1-Color_M08",
		"primitives":[{
			"attributes":{
				"POSITION":57,
				"NORMAL":58,
				"TEXCOORD_0":59
			},
			"indices":56,
			"material":1
		}]
	},
	{
		"name":"Mesh1-Color_F06",
		"primitives":[{
			"attributes":{
				"POSITION":67,
				"NORMAL":68,
				"TEXCOORD_0":69
			},
			"indices":66,
			"material":2
		}]
	},
	{
		"name":"Mesh1-Color_M00",
		"primitives":[{
			"attributes":{
				"POSITION":71,
				"NORMAL":72,
				"TEXCOORD_0":73
			},
			"indices":70,
			"material":3
		}]
	}],
	"accessors":[{
		"bufferView":0,
		"type":"SCALAR",
		"componentType":5126,
		"count":2,
		"byteOffset":0,
		"min":[0.0],
		"max":[3.0]
	},
	{
		"bufferView":0,
		"type":"VEC3",
		"componentType":5126,
		"count":2,
		"byteOffset":8,
		"min":[-0.012366147711873055,
		0.0024274885654449465,
		0.0027628131210803987],
		"max":[-0.012366147711873055,
		0.0024274885654449465,
		0.0027628131210803987]
	},
	{
		"bufferView":1,
		"type":"SCALAR",
		"componentType":5126,
		"count":2,
		"byteOffset":0,
		"min":[0.0],
		"max":[3.0]
	},
	{
		"bufferView":1,
		"type":"VEC4",
		"componentType":5126,
		"count":2,
		"byteOffset":8,
		"min":[0.0,
		0.0,
		0.0,
		-1.0],
		"max":[0.0,
		0.0,
		0.0,
		-1.0]
	},
	{
		"bufferView":2,
		"type":"SCALAR",
		"componentType":5126,
		"count":2,
		"byteOffset":0,
		"min":[0.0],
		"max":[3.0]
	},
	{
		"bufferView":2,
		"type":"VEC3",
		"componentType":5126,
		"count":2,
		"byteOffset":8,
		"min":[1.0,
		1.0,
		1.0],
		"max":[1.0,
		1.0,
		1.0]
	},
	{
		"bufferView":3,
		"type":"SCALAR",
		"componentType":5123,
		"count":102,
		"byteOffset":0,
		"min":[0],
		"max":[47]
	},
	{
		"bufferView":4,
		"type":"VEC3",
		"componentType":5126,
		"count":48,
		"byteOffset":0,
		"min":[-0.001500000013038516,
		-0.01549999974668026,
		-0.03700000047683716],
		"max":[0.001500000013038516,
		0.01549999974668026,
		0.03700000047683716]
	},
	{
		"bufferView":4,
		"type":"VEC3",
		"componentType":5126,
		"count":48,
		"byteOffset":12,
		"min":[-0.9045397639274597,
		-0.6666701436042786,
		-0.4364253878593445],
		"max":[0.9128761887550354,
		0.6666701436042786,
		0.7276068925857544]
	},
	{
		"bufferView":4,
		"type":"VEC2",
		"componentType":5126,
		"count":48,
		"byteOffset":24,
		"min":[-2.8346457481384279,
		-1.8346455097198487],
		"max":[2.8346457481384279,
		1.078740119934082]
	},
	{
		"bufferView":5,
		"type":"SCALAR",
		"componentType":5126,
		"count":3,
		"byteOffset":0,
		"min":[0.0],
		"max":[3.0]
	},
	{
		"bufferView":5,
		"type":"VEC3",
		"componentType":5126,
		"count":3,
		"byteOffset":12,
		"min":[0.06688385456800461,
		0.018427489325404168,
		0.0027628131210803987],
		"max":[0.11676723510026932,
		0.018427489325404168,
		0.0027628131210803987]
	},
	{
		"bufferView":6,
		"type":"SCALAR",
		"componentType":5126,
		"count":2,
		"byteOffset":0,
		"min":[0.0],
		"max":[3.0]
	},
	{
		"bufferView":6,
		"type":"VEC4",
		"componentType":5126,
		"count":2,
		"byteOffset":8,
		"min":[0.0,
		0.0,
		0.0,
		-1.0],
		"max":[0.0,
		0.0,
		0.0,
		-1.0]
	},
	{
		"bufferView":7,
		"type":"SCALAR",
		"componentType":5126,
		"count":2,
		"byteOffset":0,
		"min":[0.0],
		"max":[3.0]
	},
	{
		"bufferView":7,
		"type":"VEC3",
		"componentType":5126,
		"count":2,
		"byteOffset":8,
		"min":[1.0,
		1.0,
		1.0],
		"max":[1.0,
		1.0,
		1.0]
	},
	{
		"bufferView":8,
		"type":"SCALAR",
		"componentType":5123,
		"count":60,
		"byteOffset":0,
		"min":[0],
		"max":[35]
	},
	{
		"bufferView":9,
		"type":"VEC3",
		"componentType":5126,
		"count":36,
		"byteOffset":0,
		"min":[-0.001500000013038516,
		-0.03550000116229057,
		-0.029500000178813936],
		"max":[0.001500000013038516,
		0.03550000116229057,
		0.029500000178813936]
	},
	{
		"bufferView":9,
		"type":"VEC3",
		"componentType":5126,
		"count":36,
		"byteOffset":12,
		"min":[-0.8017948865890503,
		-0.8165070414543152,
		-0.8165070414543152],
		"max":[0.9045397639274597,
		0.8165070414543152,
		0.8165070414543152]
	},
	{
		"bufferView":9,
		"type":"VEC2",
		"componentType":5126,
		"count":36,
		"byteOffset":24,
		"min":[-2.3228347301483156,
		-1.7952754497528077],
		"max":[2.3228347301483156,
		1.0]
	},
	{
		"bufferView":10,
		"type":"SCALAR",
		"componentType":5126,
		"count":2,
		"byteOffset":0,
		"min":[0.0],
		"max":[3.0]
	},
	{
		"bufferView":10,
		"type":"VEC3",
		"componentType":5126,
		"count":2,
		"byteOffset":8,
		"min":[0.006883852183818817,
		0.03842748701572418,
		-0.007737187203019857],
		"max":[0.006883852183818817,
		0.03842748701572418,
		-0.007737187203019857]
	},
	{
		"bufferView":11,
		"type":"SCALAR",
		"componentType":5126,
		"count":2,
		"byteOffset":0,
		"min":[0.0],
		"max":[3.0]
	},
	{
		"bufferView":11,
		"type":"VEC4",
		"componentType":5126,
		"count":2,
		"byteOffset":8,
		"min":[0.0,
		0.0,
		0.0,
		-1.0],
		"max":[0.0,
		0.0,
		0.0,
		-1.0]
	},
	{
		"bufferView":12,
		"type":"SCALAR",
		"componentType":5126,
		"count":2,
		"byteOffset":0,
		"min":[0.0],
		"max":[3.0]
	},
	{
		"bufferView":12,
		"type":"VEC3",
		"componentType":5126,
		"count":2,
		"byteOffset":8,
		"min":[1.0,
		1.0,
		1.0],
		"max":[1.0,
		1.0,
		1.0]
	},
	{
		"bufferView":13,
		"type":"SCALAR",
		"componentType":5123,
		"count":36,
		"byteOffset":0,
		"min":[0],
		"max":[23]
	},
	{
		"bufferView":14,
		"type":"VEC3",
		"componentType":5126,
		"count":24,
		"byteOffset":0,
		"min":[-0.029999999329447748,
		-0.01549999974668026,
		-0.001500000013038516],
		"max":[0.029999999329447748,
		0.01549999974668026,
		0.001500000013038516]
	},
	{
		"bufferView":14,
		"type":"VEC3",
		"componentType":5126,
		"count":24,
		"byteOffset":12,
		"min":[-0.6666701436042786,
		-0.8165070414543152,
		-0.6666701436042786],
		"max":[0.6666701436042786,
		0.8165070414543152,
		0.6666701436042786]
	},
	{
		"bufferView":14,
		"type":"VEC2",
		"componentType":5126,
		"count":24,
		"byteOffset":24,
		"min":[-2.1653542518615724,
		-0.22047242522239686],
		"max":[2.1653542518615724,
		1.0]
	},
	{
		"bufferView":15,
		"type":"SCALAR",
		"componentType":5126,
		"count":3,
		"byteOffset":0,
		"min":[0.0],
		"max":[3.0]
	},
	{
		"bufferView":15,
		"type":"VEC3",
		"componentType":5126,
		"count":3,
		"byteOffset":12,
		"min":[0.0383838526904583,
		0.018427489325404168,
		-0.08345703780651093],
		"max":[0.0383838526904583,
		0.018427489325404168,
		-0.035737186670303348]
	},
	{
		"bufferView":16,
		"type":"SCALAR",
		"componentType":5126,
		"count":2,
		"byteOffset":0,
		"min":[0.0],
		"max":[3.0]
	},
	{
		"bufferView":16,
		"type":"VEC4",
		"componentType":5126,
		"count":2,
		"byteOffset":8,
		"min":[0.0,
		0.0,
		0.0,
		-1.0],
		"max":[0.0,
		0.0,
		0.0,
		-1.0]
	},
	{
		"bufferView":17,
		"type":"SCALAR",
		"componentType":5126,
		"count":2,
		"byteOffset":0,
		"min":[0.0],
		"max":[3.0]
	},
	{
		"bufferView":17,
		"type":"VEC3",
		"componentType":5126,
		"count":2,
		"byteOffset":8,
		"min":[1.0,
		1.0,
		1.0],
		"max":[1.0,
		1.0,
		1.0]
	},
	{
		"bufferView":18,
		"type":"SCALAR",
		"componentType":5123,
		"count":36,
		"byteOffset":0,
		"min":[0],
		"max":[23]
	},
	{
		"bufferView":19,
		"type":"VEC3",
		"componentType":5126,
		"count":24,
		"byteOffset":0,
		"min":[-0.05000000074505806,
		-0.03550000116229057,
		-0.001500000013038516],
		"max":[0.05000000074505806,
		0.03550000116229057,
		0.001500000013038516]
	},
	{
		"bufferView":19,
		"type":"VEC3",
		"componentType":5126,
		"count":24,
		"byteOffset":12,
		"min":[-0.8165070414543152,
		-0.6666701436042786,
		-0.6666701436042786],
		"max":[0.6666701436042786,
		0.8165070414543152,
		0.8165070414543152]
	},
	{
		"bufferView":19,
		"type":"VEC2",
		"componentType":5126,
		"count":24,
		"byteOffset":24,
		"min":[-3.9370079040527345,
		-1.7952754497528077],
		"max":[3.9370079040527345,
		1.0]
	},
	{
		"bufferView":20,
		"type":"SCALAR",
		"componentType":5126,
		"count":3,
		"byteOffset":0,
		"min":[0.0],
		"max":[3.0]
	},
	{
		"bufferView":20,
		"type":"VEC3",
		"componentType":5126,
		"count":3,
		"byteOffset":12,
		"min":[-0.17950108647346497,
		0.03842748701572418,
		0.023262813687324525],
		"max":[-0.04161614924669266,
		0.03842748701572418,
		0.023262813687324525]
	},
	{
		"bufferView":21,
		"type":"SCALAR",
		"componentType":5126,
		"count":2,
		"byteOffset":0,
		"min":[0.0],
		"max":[3.0]
	},
	{
		"bufferView":21,
		"type":"VEC4",
		"componentType":5126,
		"count":2,
		"byteOffset":8,
		"min":[0.0,
		0.0,
		0.0,
		-1.0],
		"max":[0.0,
		0.0,
		0.0,
		-1.0]
	},
	{
		"bufferView":22,
		"type":"SCALAR",
		"componentType":5126,
		"count":2,
		"byteOffset":0,
		"min":[0.0],
		"max":[3.0]
	},
	{
		"bufferView":22,
		"type":"VEC3",
		"componentType":5126,
		"count":2,
		"byteOffset":8,
		"min":[1.0,
		1.0,
		1.0],
		"max":[1.0,
		1.0,
		1.0]
	},
	{
		"bufferView":23,
		"type":"SCALAR",
		"componentType":5123,
		"count":96,
		"byteOffset":0,
		"min":[0],
		"max":[56]
	},
	{
		"bufferView":24,
		"type":"VEC3",
		"componentType":5126,
		"count":57,
		"byteOffset":0,
		"min":[-0.042249999940395358,
		-0.041999999433755878,
		-0.014999999664723874],
		"max":[0.12075000256299973,
		0.028999999165534974,
		0.006000000052154064]
	},
	{
		"bufferView":24,
		"type":"VEC3",
		"componentType":5126,
		"count":57,
		"byteOffset":12,
		"min":[-0.6666701436042786,
		-0.6666701436042786,
		-0.9428125023841858],
		"max":[0.6666701436042786,
		0.6666701436042786,
		0.8320503234863281]
	},
	{
		"bufferView":24,
		"type":"VEC2",
		"componentType":5126,
		"count":57,
		"byteOffset":24,
		"min":[-6.299212455749512,
		-1.7952754497528077],
		"max":[6.299212455749512,
		1.157480239868164]
	},
	{
		"bufferView":25,
		"type":"SCALAR",
		"componentType":5126,
		"count":3,
		"byteOffset":0,
		"min":[0.0],
		"max":[3.0]
	},
	{
		"bufferView":25,
		"type":"VEC3",
		"componentType":5126,
		"count":3,
		"byteOffset":12,
		"min":[-0.05236614868044853,
		0.04492748901247978,
		0.03676281124353409],
		"max":[-0.05236614868044853,
		0.04492748901247978,
		0.11612004041671753]
	},
	{
		"bufferView":26,
		"type":"SCALAR",
		"componentType":5126,
		"count":2,
		"byteOffset":0,
		"min":[0.0],
		"max":[3.0]
	},
	{
		"bufferView":26,
		"type":"VEC4",
		"componentType":5126,
		"count":2,
		"byteOffset":8,
		"min":[0.0,
		0.0,
		0.0,
		-1.0],
		"max":[0.0,
		0.0,
		0.0,
		-1.0]
	},
	{
		"bufferView":27,
		"type":"SCALAR",
		"componentType":5126,
		"count":2,
		"byteOffset":0,
		"min":[0.0],
		"max":[3.0]
	},
	{
		"bufferView":27,
		"type":"VEC3",
		"componentType":5126,
		"count":2,
		"byteOffset":8,
		"min":[1.0,
		1.0,
		1.0],
		"max":[1.0,
		1.0,
		1.0]
	},
	{
		"bufferView":28,
		"type":"SCALAR",
		"componentType":5123,
		"count":84,
		"byteOffset":0,
		"min":[0],
		"max":[47]
	},
	{
		"bufferView":29,
		"type":"VEC3",
		"componentType":5126,
		"count":48,
		"byteOffset":0,
		"min":[-0.07925000041723252,
		0.0005000000237487257,
		-0.03700000047683716],
		"max":[0.07774999737739563,
		0.001500000013038516,
		0.03700000047683716]
	},
	{
		"bufferView":29,
		"type":"VEC3",
		"componentType":5126,
		"count":48,
		"byteOffset":12,
		"min":[-0.8165070414543152,
		-0.8728820085525513,
		-0.8165070414543152],
		"max":[0.5345091223716736,
		0.8728820085525513,
		0.8165070414543152]
	},
	{
		"bufferView":29,
		"type":"VEC2",
		"componentType":5126,
		"count":48,
		"byteOffset":24,
		"min":[-6.22047233581543,
		-1.9133858680725098],
		"max":[6.22047233581543,
		1.0]
	},
	{
		"bufferView":30,
		"type":"SCALAR",
		"componentType":5126,
		"count":2,
		"byteOffset":0,
		"min":[0.0],
		"max":[3.0]
	},
	{
		"bufferView":30,
		"type":"VEC3",
		"componentType":5126,
		"count":2,
		"byteOffset":8,
		"min":[-0.012366147711873055,
		0.0024274885654449465,
		0.0027628131210803987],
		"max":[-0.012366147711873055,
		0.0024274885654449465,
		0.0027628131210803987]
	},
	{
		"bufferView":31,
		"type":"SCALAR",
		"componentType":5126,
		"count":2,
		"byteOffset":0,
		"min":[0.0],
		"max":[3.0]
	},
	{
		"bufferView":31,
		"type":"VEC4",
		"componentType":5126,
		"count":2,
		"byteOffset":8,
		"min":[0.0,
		0.0,
		0.0,
		-1.0],
		"max":[0.0,
		0.0,
		0.0,
		-1.0]
	},
	{
		"bufferView":32,
		"type":"SCALAR",
		"componentType":5126,
		"count":2,
		"byteOffset":0,
		"min":[0.0],
		"max":[3.0]
	},
	{
		"bufferView":32,
		"type":"VEC3",
		"componentType":5126,
		"count":2,
		"byteOffset":8,
		"min":[1.0,
		1.0,
		1.0],
		"max":[1.0,
		1.0,
		1.0]
	},
	{
		"bufferView":33,
		"type":"SCALAR",
		"componentType":5123,
		"count":6,
		"byteOffset":0,
		"min":[0],
		"max":[3]
	},
	{
		"bufferView":34,
		"type":"VEC3",
		"componentType":5126,
		"count":4,
		"byteOffset":0,
		"min":[-0.07925000041723252,
		0.0005000000237487257,
		-0.03999999910593033],
		"max":[0.0807500034570694,
		0.0005000000237487257,
		0.03999999910593033]
	},
	{
		"bufferView":34,
		"type":"VEC3",
		"componentType":5126,
		"count":4,
		"byteOffset":12,
		"min":[0.0,
		1.0,
		0.0],
		"max":[0.0,
		1.0,
		0.0]
	},
	{
		"bufferView":34,
		"type":"VEC2",
		"componentType":5126,
		"count":4,
		"byteOffset":24,
		"min":[0.0,
		-2.149606227874756],
		"max":[6.299212455749512,
		1.0]
	},
	{
		"bufferView":35,
		"type":"SCALAR",
		"componentType":5123,
		"count":30,
		"byteOffset":0,
		"min":[0],
		"max":[17]
	},
	{
		"bufferView":36,
		"type":"VEC3",
		"componentType":5126,
		"count":18,
		"byteOffset":0,
		"min":[-0.07925000041723252,
		-0.0024999999441206457,
		-0.03999999910593033],
		"max":[0.0807500034570694,
		0.0005000000237487257,
		0.03999999910593033]
	},
	{
		"bufferView":36,
		"type":"VEC3",
		"componentType":5126,
		"count":18,
		"byteOffset":12,
		"min":[-0.8944334387779236,
		-0.6666701436042786,
		-0.8944334387779236],
		"max":[0.8944334387779236,
		0.0,
		0.8944334387779236]
	},
	{
		"bufferView":36,
		"type":"VEC2",
		"componentType":5126,
		"count":18,
		"byteOffset":24,
		"min":[-6.299212455749512,
		-2.149606227874756],
		"max":[6.299212455749512,
		1.0]
	}],
	"bufferViews":[{
		"buffer":0,
		"byteOffset":0,
		"byteLength":32
	},
	{
		"buffer":0,
		"byteOffset":32,
		"byteLength":40
	},
	{
		"buffer":0,
		"byteOffset":72,
		"byteLength":32
	},
	{
		"buffer":1,
		"byteOffset":0,
		"target":34963,
		"byteLength":204
	},
	{
		"buffer":1,
		"byteOffset":204,
		"target":34962,
		"byteLength":1536,
		"byteStride":32
	},
	{
		"buffer":2,
		"byteOffset":0,
		"byteLength":48
	},
	{
		"buffer":2,
		"byteOffset":48,
		"byteLength":40
	},
	{
		"buffer":2,
		"byteOffset":88,
		"byteLength":32
	},
	{
		"buffer":3,
		"byteOffset":0,
		"target":34963,
		"byteLength":120
	},
	{
		"buffer":3,
		"byteOffset":120,
		"target":34962,
		"byteLength":1152,
		"byteStride":32
	},
	{
		"buffer":4,
		"byteOffset":0,
		"byteLength":32
	},
	{
		"buffer":4,
		"byteOffset":32,
		"byteLength":40
	},
	{
		"buffer":4,
		"byteOffset":72,
		"byteLength":32
	},
	{
		"buffer":5,
		"byteOffset":0,
		"target":34963,
		"byteLength":72
	},
	{
		"buffer":5,
		"byteOffset":72,
		"target":34962,
		"byteLength":768,
		"byteStride":32
	},
	{
		"buffer":6,
		"byteOffset":0,
		"byteLength":48
	},
	{
		"buffer":6,
		"byteOffset":48,
		"byteLength":40
	},
	{
		"buffer":6,
		"byteOffset":88,
		"byteLength":32
	},
	{
		"buffer":7,
		"byteOffset":0,
		"target":34963,
		"byteLength":72
	},
	{
		"buffer":7,
		"byteOffset":72,
		"target":34962,
		"byteLength":768,
		"byteStride":32
	},
	{
		"buffer":8,
		"byteOffset":0,
		"byteLength":48
	},
	{
		"buffer":8,
		"byteOffset":48,
		"byteLength":40
	},
	{
		"buffer":8,
		"byteOffset":88,
		"byteLength":32
	},
	{
		"buffer":9,
		"byteOffset":0,
		"target":34963,
		"byteLength":192
	},
	{
		"buffer":9,
		"byteOffset":192,
		"target":34962,
		"byteLength":1824,
		"byteStride":32
	},
	{
		"buffer":10,
		"byteOffset":0,
		"byteLength":48
	},
	{
		"buffer":10,
		"byteOffset":48,
		"byteLength":40
	},
	{
		"buffer":10,
		"byteOffset":88,
		"byteLength":32
	},
	{
		"buffer":11,
		"byteOffset":0,
		"target":34963,
		"byteLength":168
	},
	{
		"buffer":11,
		"byteOffset":168,
		"target":34962,
		"byteLength":1536,
		"byteStride":32
	},
	{
		"buffer":12,
		"byteOffset":0,
		"byteLength":32
	},
	{
		"buffer":12,
		"byteOffset":32,
		"byteLength":40
	},
	{
		"buffer":12,
		"byteOffset":72,
		"byteLength":32
	},
	{
		"buffer":13,
		"byteOffset":0,
		"target":34963,
		"byteLength":12
	},
	{
		"buffer":13,
		"byteOffset":12,
		"target":34962,
		"byteLength":128,
		"byteStride":32
	},
	{
		"buffer":14,
		"byteOffset":0,
		"target":34963,
		"byteLength":60
	},
	{
		"buffer":14,
		"byteOffset":60,
		"target":34962,
		"byteLength":576,
		"byteStride":32
	}],
	"buffers":[{
		"uri":"data:application/octet-stream;base64,",
		"byteLength":104
	},
	{
		"uri":"data:application/octet-stream;base64,",
		"byteLength":1740
	},
	{
		"uri":"data:application/octet-stream;base64,",
		"byteLength":120
	},
	{
		"uri":"data:application/octet-stream;base64,",
		"byteLength":1272
	},
	{
		"uri":"data:application/octet-stream;base64,",
		"byteLength":104
	},
	{
		"uri":"data:application/octet-stream;base64,",
		"byteLength":840
	},
	{
		"uri":"data:application/octet-stream;base64,",
		"byteLength":120
	},
	{
		"uri":"data:application/octet-stream;base64,",
		"byteLength":840
	},
	{
		"uri":"data:application/octet-stream;base64,",
		"byteLength":120
	},
	{
		"uri":"data:application/octet-stream;base64,",
		"byteLength":2016
	},
	{
		"uri":"data:application/octet-stream;base64,",
		"byteLength":120
	},
	{
		"uri":"data:application/octet-stream;base64,",
		"byteLength":1704
	},
	{
		"uri":"data:application/octet-stream;base64,",
		"byteLength":104
	},
	{
		"uri":"data:application/octet-stream;base64,",
		"byteLength":140
	},
	{
		"uri":"data:application/octet-stream;base64,",
		"byteLength":636
	}],
	"materials":[{
		"pbrMetallicRoughness":{
			"baseColorFactor":[1.0,
			1.0,
			1.0,
			1.0],
			"metallicFactor":0.0,
			"roughnessFactor":0.5678071905112637
		},
		"emissiveFactor":[0.0,
		0.0,
		0.0],
		"alphaMode":"OPAQUE",
		"doubleSided":false,
		"name":"FrontColor"
	},
	{
		"pbrMetallicRoughness":{
			"baseColorFactor":[0.117647058823529,
			0.117647058823529,
			0.117647058823529,
			1.0],
			"metallicFactor":0.0,
			"roughnessFactor":0.5678071905112637
		},
		"emissiveFactor":[0.0,
		0.0,
		0.0],
		"alphaMode":"OPAQUE",
		"doubleSided":false,
		"name":"Color_M08"
	},
	{
		"pbrMetallicRoughness":{
			"baseColorFactor":[0.4,
			0.8,
			0.0,
			1.0],
			"metallicFactor":0.0,
			"roughnessFactor":0.5678071905112637
		},
		"emissiveFactor":[0.0,
		0.0,
		0.0],
		"alphaMode":"OPAQUE",
		"doubleSided":false,
		"name":"Color_F06"
	},
	{
		"pbrMetallicRoughness":{
			"baseColorFactor":[1.0,
			1.0,
			1.0,
			1.0],
			"metallicFactor":0.0,
			"roughnessFactor":0.5678071905112637
		},
		"emissiveFactor":[0.0,
		0.0,
		0.0],
		"alphaMode":"OPAQUE",
		"doubleSided":false,
		"name":"Color_M00"
	}],
	"animations":[{
		"samplers":[{
			"input":0,
			"interpolation":"LINEAR",
			"output":1
		},
		{
			"input":2,
			"interpolation":"LINEAR",
			"output":3
		},
		{
			"input":4,
			"interpolation":"LINEAR",
			"output":5
		},
		{
			"input":10,
			"interpolation":"LINEAR",
			"output":11
		},
		{
			"input":12,
			"interpolation":"LINEAR",
			"output":13
		},
		{
			"input":14,
			"interpolation":"LINEAR",
			"output":15
		},
		{
			"input":20,
			"interpolation":"LINEAR",
			"output":21
		},
		{
			"input":22,
			"interpolation":"LINEAR",
			"output":23
		},
		{
			"input":24,
			"interpolation":"LINEAR",
			"output":25
		},
		{
			"input":30,
			"interpolation":"LINEAR",
			"output":31
		},
		{
			"input":32,
			"interpolation":"LINEAR",
			"output":33
		},
		{
			"input":34,
			"interpolation":"LINEAR",
			"output":35
		},
		{
			"input":40,
			"interpolation":"LINEAR",
			"output":41
		},
		{
			"input":42,
			"interpolation":"LINEAR",
			"output":43
		},
		{
			"input":44,
			"interpolation":"LINEAR",
			"output":45
		},
		{
			"input":50,
			"interpolation":"LINEAR",
			"output":51
		},
		{
			"input":52,
			"interpolation":"LINEAR",
			"output":53
		},
		{
			"input":54,
			"interpolation":"LINEAR",
			"output":55
		},
		{
			"input":60,
			"interpolation":"LINEAR",
			"output":61
		},
		{
			"input":62,
			"interpolation":"LINEAR",
			"output":63
		},
		{
			"input":64,
			"interpolation":"LINEAR",
			"output":65
		}],
		"channels":[{
			"sampler":0,
			"target":{
				"node":0,
				"path":"translation"
			}
		},
		{
			"sampler":1,
			"target":{
				"node":0,
				"path":"rotation"
			}
		},
		{
			"sampler":2,
			"target":{
				"node":0,
				"path":"scale"
			}
		},
		{
			"sampler":3,
			"target":{
				"node":1,
				"path":"translation"
			}
		},
		{
			"sampler":4,
			"target":{
				"node":1,
				"path":"rotation"
			}
		},
		{
			"sampler":5,
			"target":{
				"node":1,
				"path":"scale"
			}
		},
		{
			"sampler":6,
			"target":{
				"node":2,
				"path":"translation"
			}
		},
		{
			"sampler":7,
			"target":{
				"node":2,
				"path":"rotation"
			}
		},
		{
			"sampler":8,
			"target":{
				"node":2,
				"path":"scale"
			}
		},
		{
			"sampler":9,
			"target":{
				"node":3,
				"path":"translation"
			}
		},
		{
			"sampler":10,
			"target":{
				"node":3,
				"path":"rotation"
			}
		},
		{
			"sampler":11,
			"target":{
				"node":3,
				"path":"scale"
			}
		},
		{
			"sampler":12,
			"target":{
				"node":4,
				"path":"translation"
			}
		},
		{
			"sampler":13,
			"target":{
				"node":4,
				"path":"rotation"
			}
		},
		{
			"sampler":14,
			"target":{
				"node":4,
				"path":"scale"
			}
		},
		{
			"sampler":15,
			"target":{
				"node":5,
				"path":"translation"
			}
		},
		{
			"sampler":16,
			"target":{
				"node":5,
				"path":"rotation"
			}
		},
		{
			"sampler":17,
			"target":{
				"node":5,
				"path":"scale"
			}
		},
		{
			"sampler":18,
			"target":{
				"node":6,
				"path":"translation"
			}
		},
		{
			"sampler":19,
			"target":{
				"node":6,
				"path":"rotation"
			}
		},
		{
			"sampler":20,
			"target":{
				"node":6,
				"path":"scale"
			}
		}]
	}]
}