{
	"asset":{
		"version":"2.0",
		"generator":""
	},
	"scenes":[{
		"nodes":[0,
		1,
		2]
	}],
	"nodes":[{
		"name":"Mesh1",
		"mesh":0,
		"translation":[0.0,
		0.4607265591621399,
		0.0],
		"rotation":[0.0,
		0.0,
		0.0,
		-1.0],
		"scale":[1.0,
		1.0,
		1.0]
	},
	{
		"name":"Mesh2",
		"mesh":1,
		"translation":[0.0,
		0.0,
		0.0],
		"rotation":[0.0,
		0.0,
		0.0,
		-1.0],
		"scale":[1.0,
		1.0,
		1.0]
	},
	{
		"name":"Mesh6",
		"mesh":2,
		"translation":[0.0,
		-0.506107747554779,
		0.0],
		"rotation":[0.0,
		0.0,
		0.0,
		-1.0],
		"scale":[1.0,
		1.0,
		1.0]
	}],
	"meshes":[{
		"name":"Mesh1",
		"primitives":[{
			"attributes":{
				"POSITION":1,
				"NORMAL":2,
				"TEXCOORD_0":3
			},
			"indices":0,
			"material":0
		}]
	},
	{
		"name":"Mesh2",
		"primitives":[{
			"attributes":{
				"POSITION":11,
				"NORMAL":12,
				"TEXCOORD_0":13
			},
			"indices":10,
			"material":1
		}]
	},
	{
		"name":"Mesh6",
		"primitives":[{
			"attributes":{
				"POSITION":21,
				"NORMAL":22,
				"TEXCOORD_0":23
			},
			"indices":20,
			"material":0
		}]
	}],
	"accessors":[{
		"bufferView":0,
		"type":"SCALAR",
		"componentType":5123,
		"count":294,
		"byteOffset":0,
		"min":[0],
		"max":[181]
	},
	{
		"bufferView":1,
		"type":"VEC3",
		"componentType":5126,
		"count":182,
		"byteOffset":0,
		"min":[4.441941360564037e-16,
		-6.306066589288476e-16,
		-0.4000000059604645],
		"max":[0.800000011920929,
		0.5049999952316284,
		9.24046665126319e-16]
	},
	{
		"bufferView":1,
		"type":"VEC3",
		"componentType":5126,
		"count":182,
		"byteOffset":12,
		"min":[-0.9605998396873474,
		-0.9991452693939209,
		-0.9852069616317749],
		"max":[0.9669557213783264,
		0.8529013395309448,
		0.9210205078125]
	},
	{
		"bufferView":1,
		"type":"VEC2",
		"componentType":5126,
		"count":182,
		"byteOffset":24,
		"min":[-1847.2894287109376,
		-1997.3955078125],
		"max":[1839.829833984375,
		1451.27392578125]
	},
	{
		"bufferView":2,
		"type":"SCALAR",
		"componentType":5126,
		"count":3,
		"byteOffset":0,
		"min":[0.0],
		"max":[3.0]
	},
	{
		"bufferView":2,
		"type":"VEC3",
		"componentType":5126,
		"count":3,
		"byteOffset":12,
		"min":[0.0,
		0.0,
		0.0],
		"max":[0.0,
		0.4607265591621399,
		0.0]
	},
	{
		"bufferView":3,
		"type":"SCALAR",
		"componentType":5126,
		"count":2,
		"byteOffset":0,
		"min":[0.0],
		"max":[3.0]
	},
	{
		"bufferView":3,
		"type":"VEC4",
		"componentType":5126,
		"count":2,
		"byteOffset":8,
		"min":[0.0,
		0.0,
		0.0,
		-1.0],
		"max":[0.0,
		0.0,
		0.0,
		-1.0]
	},
	{
		"bufferView":4,
		"type":"SCALAR",
		"componentType":5126,
		"count":2,
		"byteOffset":0,
		"min":[0.0],
		"max":[3.0]
	},
	{
		"bufferView":4,
		"type":"VEC3",
		"componentType":5126,
		"count":2,
		"byteOffset":8,
		"min":[1.0,
		1.0,
		1.0],
		"max":[1.0,
		1.0,
		1.0]
	},
	{
		"bufferView":5,
		"type":"SCALAR",
		"componentType":5123,
		"count":474,
		"byteOffset":0,
		"min":[0],
		"max":[251]
	},
	{
		"bufferView":6,
		"type":"VEC3",
		"componentType":5126,
		"count":252,
		"byteOffset":0,
		"min":[0.0,
		0.0,
		-0.4000000059604645],
		"max":[0.800000011920929,
		0.10499999672174454,
		8.662936823814751e-16]
	},
	{
		"bufferView":6,
		"type":"VEC3",
		"componentType":5126,
		"count":252,
		"byteOffset":12,
		"min":[-0.7405876517295837,
		-0.6886671185493469,
		-0.9697422385215759],
		"max":[0.9794834852218628,
		1.0,
		0.9596425294876099]
	},
	{
		"bufferView":6,
		"type":"VEC2",
		"componentType":5126,
		"count":252,
		"byteOffset":24,
		"min":[-1816.5244140625,
		-1180.102294921875],
		"max":[1758.3916015625,
		1.0]
	},
	{
		"bufferView":7,
		"type":"SCALAR",
		"componentType":5126,
		"count":2,
		"byteOffset":0,
		"min":[0.0],
		"max":[3.0]
	},
	{
		"bufferView":7,
		"type":"VEC3",
		"componentType":5126,
		"count":2,
		"byteOffset":8,
		"min":[0.0,
		0.0,
		0.0],
		"max":[0.0,
		0.0,
		0.0]
	},
	{
		"bufferView":8,
		"type":"SCALAR",
		"componentType":5126,
		"count":2,
		"byteOffset":0,
		"min":[0.0],
		"max":[3.0]
	},
	{
		"bufferView":8,
		"type":"VEC4",
		"componentType":5126,
		"count":2,
		"byteOffset":8,
		"min":[0.0,
		0.0,
		0.0,
		-1.0],
		"max":[0.0,
		0.0,
		0.0,
		-1.0]
	},
	{
		"bufferView":9,
		"type":"SCALAR",
		"componentType":5126,
		"count":2,
		"byteOffset":0,
		"min":[0.0],
		"max":[3.0]
	},
	{
		"bufferView":9,
		"type":"VEC3",
		"componentType":5126,
		"count":2,
		"byteOffset":8,
		"min":[1.0,
		1.0,
		1.0],
		"max":[1.0,
		1.0,
		1.0]
	},
	{
		"bufferView":10,
		"type":"SCALAR",
		"componentType":5123,
		"count":576,
		"byteOffset":0,
		"min":[0],
		"max":[290]
	},
	{
		"bufferView":11,
		"type":"VEC3",
		"componentType":5126,
		"count":291,
		"byteOffset":0,
		"min":[0.0,
		0.0,
		-0.4000000059604645],
		"max":[0.800000011920929,
		0.10499999672174454,
		-1.1550583314078988e-16]
	},
	{
		"bufferView":11,
		"type":"VEC3",
		"componentType":5126,
		"count":291,
		"byteOffset":12,
		"min":[-0.9737607836723328,
		-0.9218648672103882,
		-0.9108368158340454],
		"max":[0.9169192314147949,
		0.927588701248169,
		0.9783247113227844]
	},
	{
		"bufferView":11,
		"type":"VEC2",
		"componentType":5126,
		"count":291,
		"byteOffset":24,
		"min":[-3149.606201171875,
		-1573.802978515625],
		"max":[3369.738525390625,
		1.0]
	},
	{
		"bufferView":12,
		"type":"SCALAR",
		"componentType":5126,
		"count":3,
		"byteOffset":0,
		"min":[0.0],
		"max":[3.0]
	},
	{
		"bufferView":12,
		"type":"VEC3",
		"componentType":5126,
		"count":3,
		"byteOffset":12,
		"min":[0.0,
		-0.506107747554779,
		0.0],
		"max":[0.0,
		0.0,
		0.0]
	},
	{
		"bufferView":13,
		"type":"SCALAR",
		"componentType":5126,
		"count":2,
		"byteOffset":0,
		"min":[0.0],
		"max":[3.0]
	},
	{
		"bufferView":13,
		"type":"VEC4",
		"componentType":5126,
		"count":2,
		"byteOffset":8,
		"min":[0.0,
		0.0,
		0.0,
		-1.0],
		"max":[0.0,
		0.0,
		0.0,
		-1.0]
	},
	{
		"bufferView":14,
		"type":"SCALAR",
		"componentType":5126,
		"count":2,
		"byteOffset":0,
		"min":[0.0],
		"max":[3.0]
	},
	{
		"bufferView":14,
		"type":"VEC3",
		"componentType":5126,
		"count":2,
		"byteOffset":8,
		"min":[1.0,
		1.0,
		1.0],
		"max":[1.0,
		1.0,
		1.0]
	}],
	"bufferViews":[{
		"buffer":0,
		"byteOffset":0,
		"target":34963,
		"byteLength":588
	},
	{
		"buffer":0,
		"byteOffset":588,
		"target":34962,
		"byteLength":5824,
		"byteStride":32
	},
	{
		"buffer":1,
		"byteOffset":0,
		"byteLength":48
	},
	{
		"buffer":1,
		"byteOffset":48,
		"byteLength":40
	},
	{
		"buffer":1,
		"byteOffset":88,
		"byteLength":32
	},
	{
		"buffer":2,
		"byteOffset":0,
		"target":34963,
		"byteLength":948
	},
	{
		"buffer":2,
		"byteOffset":948,
		"target":34962,
		"byteLength":8064,
		"byteStride":32
	},
	{
		"buffer":3,
		"byteOffset":0,
		"byteLength":32
	},
	{
		"buffer":3,
		"byteOffset":32,
		"byteLength":40
	},
	{
		"buffer":3,
		"byteOffset":72,
		"byteLength":32
	},
	{
		"buffer":4,
		"byteOffset":0,
		"target":34963,
		"byteLength":1152
	},
	{
		"buffer":4,
		"byteOffset":1152,
		"target":34962,
		"byteLength":9312,
		"byteStride":32
	},
	{
		"buffer":5,
		"byteOffset":0,
		"byteLength":48
	},
	{
		"buffer":5,
		"byteOffset":48,
		"byteLength":40
	},
	{
		"buffer":5,
		"byteOffset":88,
		"byteLength":32
	}],
	"buffers":[{
		"uri":"data:application/octet-stream;base64,",
		"byteLength":6412
	},
	{
		"uri":"data:application/octet-stream;base64,",
		"byteLength":120
	},
	{
		"uri":"data:application/octet-stream;base64,",
		"byteLength":9012
	},
	{
		"uri":"data:application/octet-stream;base64,",
		"byteLength":104
	},
	{
		"uri":"data:application/octet-stream;base64,",
		"byteLength":10464
	},
	{
		"uri":"data:application/octet-stream;base64,",
		"byteLength":120
	}],
	"materials":[{
		"pbrMetallicRoughness":{
			"baseColorFactor":[1.0,
			1.0,
			1.0,
			1.0],
			"metallicFactor":0.0,
			"roughnessFactor":0.5678071905112637
		},
		"emissiveFactor":[0.0,
		0.0,
		0.0],
		"alphaMode":"OPAQUE",
		"doubleSided":false,
		"name":"FrontColor"
	},
	{
		"pbrMetallicRoughness":{
			"baseColorFactor":[0.29803921568627508,
			0.6,
			0.0,
			1.0],
			"metallicFactor":0.0,
			"roughnessFactor":0.5678071905112637
		},
		"emissiveFactor":[0.0,
		0.0,
		0.0],
		"alphaMode":"OPAQUE",
		"doubleSided":false,
		"name":"Color_F07"
	}],
	"animations":[{
		"samplers":[{
			"input":4,
			"interpolation":"LINEAR",
			"output":5
		},
		{
			"input":6,
			"interpolation":"LINEAR",
			"output":7
		},
		{
			"input":8,
			"interpolation":"LINEAR",
			"output":9
		},
		{
			"input":14,
			"interpolation":"LINEAR",
			"output":15
		},
		{
			"input":16,
			"interpolation":"LINEAR",
			"output":17
		},
		{
			"input":18,
			"interpolation":"LINEAR",
			"output":19
		},
		{
			"input":24,
			"interpolation":"LINEAR",
			"output":25
		},
		{
			"input":26,
			"interpolation":"LINEAR",
			"output":27
		},
		{
			"input":28,
			"interpolation":"LINEAR",
			"output":29
		}],
		"channels":[{
			"sampler":0,
			"target":{
				"node":0,
				"path":"translation"
			}
		},
		{
			"sampler":1,
			"target":{
				"node":0,
				"path":"rotation"
			}
		},
		{
			"sampler":2,
			"target":{
				"node":0,
				"path":"scale"
			}
		},
		{
			"sampler":3,
			"target":{
				"node":1,
				"path":"translation"
			}
		},
		{
			"sampler":4,
			"target":{
				"node":1,
				"path":"rotation"
			}
		},
		{
			"sampler":5,
			"target":{
				"node":1,
				"path":"scale"
			}
		},
		{
			"sampler":6,
			"target":{
				"node":2,
				"path":"translation"
			}
		},
		{
			"sampler":7,
			"target":{
				"node":2,
				"path":"rotation"
			}
		},
		{
			"sampler":8,
			"target":{
				"node":2,
				"path":"scale"
			}
		}]
	}]
}