{
	"asset":{
		"version":"2.0",
		"generator":""
	},
	"scenes":[{
		"nodes":[0,
		1,
		2,
		3,
		4]
	}],
	"nodes":[{
		"name":"Mesh1",
		"mesh":0,
		"rotation":[0.0,
		0.0,
		0.0,
		-1.0],
		"translation":[0.0,
		0.0,
		0.0],
		"scale":[1.0,
		1.0,
		1.0]
	},
	{
		"name":"Mesh4",
		"rotation":[0.0,
		0.0,
		0.0,
		-1.0],
		"translation":[0.0,
		0.0,
		0.0],
		"scale":[1.0,
		1.0,
		1.0],
		"children":[5,
		6]
	},
	{
		"name":"Mesh5",
		"rotation":[0.0,
		0.0,
		0.0,
		-1.0],
		"translation":[-70.61961364746094,
		0.0,
		0.0],
		"scale":[1.0,
		1.0,
		1.0],
		"children":[7,
		8]
	},
	{
		"name":"Mesh3",
		"rotation":[0.0,
		0.0,
		0.0,
		-1.0],
		"translation":[0.0,
		0.0,
		-50.61491012573242],
		"scale":[1.0,
		1.0,
		1.0],
		"children":[9,
		10]
	},
	{
		"name":"Mesh2",
		"rotation":[0.0,
		0.0,
		0.0,
		-1.0],
		"translation":[0.0,
		0.0,
		48.489112854003909],
		"scale":[1.0,
		1.0,
		1.0],
		"children":[11,
		12]
	},
	{
		"name":"Mesh4-Color_L01",
		"mesh":1,
		"rotation":[0.0,
		0.0,
		0.0,
		-1.0],
		"translation":[0.0,
		0.0,
		0.0],
		"scale":[1.0,
		1.0,
		1.0]
	},
	{
		"name":"Mesh4-FrontColor",
		"mesh":2
	},
	{
		"name":"Mesh5-FrontColor",
		"mesh":3,
		"rotation":[0.0,
		0.0,
		0.0,
		-1.0],
		"translation":[0.0,
		0.0,
		0.0],
		"scale":[1.0,
		1.0,
		1.0]
	},
	{
		"name":"Mesh5-Color_L01",
		"mesh":4
	},
	{
		"name":"Mesh3-Color_E02",
		"mesh":5,
		"rotation":[0.0,
		0.0,
		0.0,
		-1.0],
		"translation":[0.0,
		0.0,
		0.0],
		"scale":[1.0,
		1.0,
		1.0]
	},
	{
		"name":"Mesh3-FrontColor",
		"mesh":6
	},
	{
		"name":"Mesh2-Color_E02",
		"mesh":7,
		"rotation":[0.0,
		0.0,
		0.0,
		-1.0],
		"translation":[0.0,
		0.0,
		0.0],
		"scale":[1.0,
		1.0,
		1.0]
	},
	{
		"name":"Mesh2-FrontColor",
		"mesh":8
	}],
	"meshes":[{
		"name":"Mesh1",
		"primitives":[{
			"attributes":{
				"POSITION":1,
				"TEXCOORD_0":2
			},
			"indices":0,
			"material":0
		}]
	},
	{
		"name":"Mesh4-Color_L01",
		"primitives":[{
			"attributes":{
				"POSITION":34,
				"TEXCOORD_0":35
			},
			"indices":33,
			"material":1
		}]
	},
	{
		"name":"Mesh4-FrontColor",
		"primitives":[{
			"attributes":{
				"POSITION":43,
				"TEXCOORD_0":44
			},
			"indices":42,
			"material":0
		}]
	},
	{
		"name":"Mesh5-FrontColor",
		"primitives":[{
			"attributes":{
				"POSITION":46,
				"TEXCOORD_0":47
			},
			"indices":45,
			"material":0
		}]
	},
	{
		"name":"Mesh5-Color_L01",
		"primitives":[{
			"attributes":{
				"POSITION":55,
				"TEXCOORD_0":56
			},
			"indices":54,
			"material":1
		}]
	},
	{
		"name":"Mesh3-Color_E02",
		"primitives":[{
			"attributes":{
				"POSITION":58,
				"TEXCOORD_0":59
			},
			"indices":57,
			"material":2
		}]
	},
	{
		"name":"Mesh3-FrontColor",
		"primitives":[{
			"attributes":{
				"POSITION":67,
				"TEXCOORD_0":68
			},
			"indices":66,
			"material":0
		}]
	},
	{
		"name":"Mesh2-Color_E02",
		"primitives":[{
			"attributes":{
				"POSITION":70,
				"TEXCOORD_0":71
			},
			"indices":69,
			"material":2
		}]
	},
	{
		"name":"Mesh2-FrontColor",
		"primitives":[{
			"attributes":{
				"POSITION":79,
				"TEXCOORD_0":80
			},
			"indices":78,
			"material":0
		}]
	}],
	"accessors":[{
		"bufferView":0,
		"type":"SCALAR",
		"componentType":5123,
		"count":36,
		"byteOffset":0,
		"min":[0],
		"max":[20]
	},
	{
		"bufferView":1,
		"type":"VEC3",
		"componentType":5126,
		"count":21,
		"byteOffset":0,
		"min":[0.0,
		0.0,
		-40.0],
		"max":[80.0,
		1.5,
		0.0]
	},
	{
		"bufferView":1,
		"type":"VEC2",
		"componentType":5126,
		"count":21,
		"byteOffset":12,
		"min":[-314.96063232421877,
		-156.48031616210938],
		"max":[314.96063232421877,
		1.0]
	},
	{
		"bufferView":2,
		"type":"SCALAR",
		"componentType":5126,
		"count":2,
		"byteOffset":0,
		"min":[0.0],
		"max":[3.0]
	},
	{
		"bufferView":2,
		"type":"VEC3",
		"componentType":5126,
		"count":2,
		"byteOffset":8,
		"min":[0.0,
		0.0,
		0.0],
		"max":[0.0,
		0.0,
		0.0]
	},
	{
		"bufferView":3,
		"type":"SCALAR",
		"componentType":5126,
		"count":2,
		"byteOffset":0,
		"min":[0.0],
		"max":[3.0]
	},
	{
		"bufferView":3,
		"type":"VEC4",
		"componentType":5126,
		"count":2,
		"byteOffset":8,
		"min":[0.0,
		0.0,
		0.0,
		-1.0],
		"max":[0.0,
		0.0,
		0.0,
		-1.0]
	},
	{
		"bufferView":4,
		"type":"SCALAR",
		"componentType":5126,
		"count":2,
		"byteOffset":0,
		"min":[0.0],
		"max":[3.0]
	},
	{
		"bufferView":4,
		"type":"VEC3",
		"componentType":5126,
		"count":2,
		"byteOffset":8,
		"min":[1.0,
		1.0,
		1.0],
		"max":[1.0,
		1.0,
		1.0]
	},
	{
		"bufferView":5,
		"type":"SCALAR",
		"componentType":5126,
		"count":2,
		"byteOffset":0,
		"min":[0.0],
		"max":[3.0]
	},
	{
		"bufferView":5,
		"type":"VEC3",
		"componentType":5126,
		"count":2,
		"byteOffset":8,
		"min":[0.0,
		0.0,
		0.0],
		"max":[0.0,
		0.0,
		0.0]
	},
	{
		"bufferView":6,
		"type":"SCALAR",
		"componentType":5126,
		"count":2,
		"byteOffset":0,
		"min":[0.0],
		"max":[3.0]
	},
	{
		"bufferView":6,
		"type":"VEC4",
		"componentType":5126,
		"count":2,
		"byteOffset":8,
		"min":[0.0,
		0.0,
		0.0,
		-1.0],
		"max":[0.0,
		0.0,
		0.0,
		-1.0]
	},
	{
		"bufferView":7,
		"type":"SCALAR",
		"componentType":5126,
		"count":2,
		"byteOffset":0,
		"min":[0.0],
		"max":[3.0]
	},
	{
		"bufferView":7,
		"type":"VEC3",
		"componentType":5126,
		"count":2,
		"byteOffset":8,
		"min":[1.0,
		1.0,
		1.0],
		"max":[1.0,
		1.0,
		1.0]
	},
	{
		"bufferView":8,
		"type":"SCALAR",
		"componentType":5126,
		"count":3,
		"byteOffset":0,
		"min":[0.0],
		"max":[3.0]
	},
	{
		"bufferView":8,
		"type":"VEC3",
		"componentType":5126,
		"count":3,
		"byteOffset":12,
		"min":[-71.92698669433594,
		0.0,
		0.0],
		"max":[0.0,
		0.0,
		0.0]
	},
	{
		"bufferView":9,
		"type":"SCALAR",
		"componentType":5126,
		"count":2,
		"byteOffset":0,
		"min":[0.0],
		"max":[3.0]
	},
	{
		"bufferView":9,
		"type":"VEC4",
		"componentType":5126,
		"count":2,
		"byteOffset":8,
		"min":[0.0,
		0.0,
		0.0,
		-1.0],
		"max":[0.0,
		0.0,
		0.0,
		-1.0]
	},
	{
		"bufferView":10,
		"type":"SCALAR",
		"componentType":5126,
		"count":2,
		"byteOffset":0,
		"min":[0.0],
		"max":[3.0]
	},
	{
		"bufferView":10,
		"type":"VEC3",
		"componentType":5126,
		"count":2,
		"byteOffset":8,
		"min":[1.0,
		1.0,
		1.0],
		"max":[1.0,
		1.0,
		1.0]
	},
	{
		"bufferView":11,
		"type":"SCALAR",
		"componentType":5126,
		"count":3,
		"byteOffset":0,
		"min":[0.0],
		"max":[3.0]
	},
	{
		"bufferView":11,
		"type":"VEC3",
		"componentType":5126,
		"count":3,
		"byteOffset":12,
		"min":[0.0,
		0.0,
		-51.551937103271487],
		"max":[0.0,
		0.0,
		0.0]
	},
	{
		"bufferView":12,
		"type":"SCALAR",
		"componentType":5126,
		"count":2,
		"byteOffset":0,
		"min":[0.0],
		"max":[3.0]
	},
	{
		"bufferView":12,
		"type":"VEC4",
		"componentType":5126,
		"count":2,
		"byteOffset":8,
		"min":[0.0,
		0.0,
		0.0,
		-1.0],
		"max":[0.0,
		0.0,
		0.0,
		-1.0]
	},
	{
		"bufferView":13,
		"type":"SCALAR",
		"componentType":5126,
		"count":2,
		"byteOffset":0,
		"min":[0.0],
		"max":[3.0]
	},
	{
		"bufferView":13,
		"type":"VEC3",
		"componentType":5126,
		"count":2,
		"byteOffset":8,
		"min":[1.0,
		1.0,
		1.0],
		"max":[1.0,
		1.0,
		1.0]
	},
	{
		"bufferView":14,
		"type":"SCALAR",
		"componentType":5126,
		"count":3,
		"byteOffset":0,
		"min":[0.0],
		"max":[3.0]
	},
	{
		"bufferView":14,
		"type":"VEC3",
		"componentType":5126,
		"count":3,
		"byteOffset":12,
		"min":[0.0,
		0.0,
		0.0],
		"max":[0.0,
		0.0,
		49.38678741455078]
	},
	{
		"bufferView":15,
		"type":"SCALAR",
		"componentType":5126,
		"count":2,
		"byteOffset":0,
		"min":[0.0],
		"max":[3.0]
	},
	{
		"bufferView":15,
		"type":"VEC4",
		"componentType":5126,
		"count":2,
		"byteOffset":8,
		"min":[0.0,
		0.0,
		0.0,
		-1.0],
		"max":[0.0,
		0.0,
		0.0,
		-1.0]
	},
	{
		"bufferView":16,
		"type":"SCALAR",
		"componentType":5126,
		"count":2,
		"byteOffset":0,
		"min":[0.0],
		"max":[3.0]
	},
	{
		"bufferView":16,
		"type":"VEC3",
		"componentType":5126,
		"count":2,
		"byteOffset":8,
		"min":[1.0,
		1.0,
		1.0],
		"max":[1.0,
		1.0,
		1.0]
	},
	{
		"bufferView":17,
		"type":"SCALAR",
		"componentType":5123,
		"count":42,
		"byteOffset":0,
		"min":[0],
		"max":[23]
	},
	{
		"bufferView":18,
		"type":"VEC3",
		"componentType":5126,
		"count":24,
		"byteOffset":0,
		"min":[55.0,
		1.5,
		-40.0],
		"max":[75.0,
		40.0,
		-20.0]
	},
	{
		"bufferView":18,
		"type":"VEC2",
		"componentType":5126,
		"count":24,
		"byteOffset":12,
		"min":[-78.74015808105469,
		-150.57479858398438],
		"max":[137.79527282714845,
		1.0]
	},
	{
		"bufferView":19,
		"type":"SCALAR",
		"componentType":5126,
		"count":2,
		"byteOffset":0,
		"min":[0.0],
		"max":[3.0]
	},
	{
		"bufferView":19,
		"type":"VEC3",
		"componentType":5126,
		"count":2,
		"byteOffset":8,
		"min":[0.0,
		0.0,
		0.0],
		"max":[0.0,
		0.0,
		0.0]
	},
	{
		"bufferView":20,
		"type":"SCALAR",
		"componentType":5126,
		"count":2,
		"byteOffset":0,
		"min":[0.0],
		"max":[3.0]
	},
	{
		"bufferView":20,
		"type":"VEC4",
		"componentType":5126,
		"count":2,
		"byteOffset":8,
		"min":[0.0,
		0.0,
		0.0,
		-1.0],
		"max":[0.0,
		0.0,
		0.0,
		-1.0]
	},
	{
		"bufferView":21,
		"type":"SCALAR",
		"componentType":5126,
		"count":2,
		"byteOffset":0,
		"min":[0.0],
		"max":[3.0]
	},
	{
		"bufferView":21,
		"type":"VEC3",
		"componentType":5126,
		"count":2,
		"byteOffset":8,
		"min":[1.0,
		1.0,
		1.0],
		"max":[1.0,
		1.0,
		1.0]
	},
	{
		"bufferView":22,
		"type":"SCALAR",
		"componentType":5123,
		"count":78,
		"byteOffset":0,
		"min":[0],
		"max":[41]
	},
	{
		"bufferView":23,
		"type":"VEC3",
		"componentType":5126,
		"count":42,
		"byteOffset":0,
		"min":[40.0,
		1.5,
		-40.0],
		"max":[75.0,
		40.0,
		-20.0]
	},
	{
		"bufferView":23,
		"type":"VEC2",
		"componentType":5126,
		"count":42,
		"byteOffset":12,
		"min":[-137.79527282714845,
		-150.57479858398438],
		"max":[137.79527282714845,
		1.0]
	},
	{
		"bufferView":24,
		"type":"SCALAR",
		"componentType":5123,
		"count":78,
		"byteOffset":0,
		"min":[0],
		"max":[39]
	},
	{
		"bufferView":25,
		"type":"VEC3",
		"componentType":5126,
		"count":40,
		"byteOffset":0,
		"min":[5.0,
		1.5,
		-40.0],
		"max":[55.0,
		20.0,
		0.0]
	},
	{
		"bufferView":25,
		"type":"VEC2",
		"componentType":5126,
		"count":40,
		"byteOffset":12,
		"min":[-196.8503875732422,
		-156.48031616210938],
		"max":[196.8503875732422,
		1.0]
	},
	{
		"bufferView":26,
		"type":"SCALAR",
		"componentType":5126,
		"count":3,
		"byteOffset":0,
		"min":[0.0],
		"max":[3.0]
	},
	{
		"bufferView":26,
		"type":"VEC3",
		"componentType":5126,
		"count":3,
		"byteOffset":12,
		"min":[-71.92698669433594,
		0.0,
		0.0],
		"max":[0.0,
		0.0,
		0.0]
	},
	{
		"bufferView":27,
		"type":"SCALAR",
		"componentType":5126,
		"count":2,
		"byteOffset":0,
		"min":[0.0],
		"max":[3.0]
	},
	{
		"bufferView":27,
		"type":"VEC4",
		"componentType":5126,
		"count":2,
		"byteOffset":8,
		"min":[0.0,
		0.0,
		0.0,
		-1.0],
		"max":[0.0,
		0.0,
		0.0,
		-1.0]
	},
	{
		"bufferView":28,
		"type":"SCALAR",
		"componentType":5126,
		"count":2,
		"byteOffset":0,
		"min":[0.0],
		"max":[3.0]
	},
	{
		"bufferView":28,
		"type":"VEC3",
		"componentType":5126,
		"count":2,
		"byteOffset":8,
		"min":[1.0,
		1.0,
		1.0],
		"max":[1.0,
		1.0,
		1.0]
	},
	{
		"bufferView":29,
		"type":"SCALAR",
		"componentType":5123,
		"count":18,
		"byteOffset":0,
		"min":[0],
		"max":[11]
	},
	{
		"bufferView":30,
		"type":"VEC3",
		"componentType":5126,
		"count":12,
		"byteOffset":0,
		"min":[5.0,
		10.0,
		-17.5],
		"max":[30.0,
		20.0,
		0.0]
	},
	{
		"bufferView":30,
		"type":"VEC2",
		"componentType":5126,
		"count":12,
		"byteOffset":12,
		"min":[-68.89763641357422,
		-71.83464050292969],
		"max":[98.4251937866211,
		1.0]
	},
	{
		"bufferView":31,
		"type":"SCALAR",
		"componentType":5123,
		"count":18,
		"byteOffset":0,
		"min":[0],
		"max":[11]
	},
	{
		"bufferView":32,
		"type":"VEC3",
		"componentType":5126,
		"count":12,
		"byteOffset":0,
		"min":[-7.21911442571558e-15,
		35.0,
		-40.0],
		"max":[15.0,
		40.0,
		-30.0]
	},
	{
		"bufferView":32,
		"type":"VEC2",
		"componentType":5126,
		"count":12,
		"byteOffset":12,
		"min":[-118.11023712158203,
		-117.1102294921875],
		"max":[59.055118560791019,
		-58.05511474609375]
	},
	{
		"bufferView":33,
		"type":"SCALAR",
		"componentType":5126,
		"count":3,
		"byteOffset":0,
		"min":[0.0],
		"max":[3.0]
	},
	{
		"bufferView":33,
		"type":"VEC3",
		"componentType":5126,
		"count":3,
		"byteOffset":12,
		"min":[0.0,
		0.0,
		-51.551937103271487],
		"max":[0.0,
		0.0,
		0.0]
	},
	{
		"bufferView":34,
		"type":"SCALAR",
		"componentType":5126,
		"count":2,
		"byteOffset":0,
		"min":[0.0],
		"max":[3.0]
	},
	{
		"bufferView":34,
		"type":"VEC4",
		"componentType":5126,
		"count":2,
		"byteOffset":8,
		"min":[0.0,
		0.0,
		0.0,
		-1.0],
		"max":[0.0,
		0.0,
		0.0,
		-1.0]
	},
	{
		"bufferView":35,
		"type":"SCALAR",
		"componentType":5126,
		"count":2,
		"byteOffset":0,
		"min":[0.0],
		"max":[3.0]
	},
	{
		"bufferView":35,
		"type":"VEC3",
		"componentType":5126,
		"count":2,
		"byteOffset":8,
		"min":[1.0,
		1.0,
		1.0],
		"max":[1.0,
		1.0,
		1.0]
	},
	{
		"bufferView":36,
		"type":"SCALAR",
		"componentType":5123,
		"count":138,
		"byteOffset":0,
		"min":[0],
		"max":[67]
	},
	{
		"bufferView":37,
		"type":"VEC3",
		"componentType":5126,
		"count":68,
		"byteOffset":0,
		"min":[-7.21911442571558e-15,
		20.0,
		-40.0],
		"max":[55.0,
		40.0,
		-10.0]
	},
	{
		"bufferView":37,
		"type":"VEC2",
		"componentType":5126,
		"count":68,
		"byteOffset":12,
		"min":[-216.53543090820313,
		-117.1102294921875],
		"max":[216.53543090820313,
		1.0]
	},
	{
		"bufferView":38,
		"type":"SCALAR",
		"componentType":5123,
		"count":18,
		"byteOffset":0,
		"min":[0],
		"max":[11]
	},
	{
		"bufferView":39,
		"type":"VEC3",
		"componentType":5126,
		"count":12,
		"byteOffset":0,
		"min":[55.0,
		1.5,
		-20.0],
		"max":[60.0,
		25.0,
		0.0]
	},
	{
		"bufferView":39,
		"type":"VEC2",
		"componentType":5126,
		"count":12,
		"byteOffset":12,
		"min":[-78.74015808105469,
		-91.51968383789063],
		"max":[78.74015808105469,
		1.0]
	},
	{
		"bufferView":40,
		"type":"SCALAR",
		"componentType":5126,
		"count":3,
		"byteOffset":0,
		"min":[0.0],
		"max":[3.0]
	},
	{
		"bufferView":40,
		"type":"VEC3",
		"componentType":5126,
		"count":3,
		"byteOffset":12,
		"min":[0.0,
		0.0,
		0.0],
		"max":[0.0,
		0.0,
		49.38678741455078]
	},
	{
		"bufferView":41,
		"type":"SCALAR",
		"componentType":5126,
		"count":2,
		"byteOffset":0,
		"min":[0.0],
		"max":[3.0]
	},
	{
		"bufferView":41,
		"type":"VEC4",
		"componentType":5126,
		"count":2,
		"byteOffset":8,
		"min":[0.0,
		0.0,
		0.0,
		-1.0],
		"max":[0.0,
		0.0,
		0.0,
		-1.0]
	},
	{
		"bufferView":42,
		"type":"SCALAR",
		"componentType":5126,
		"count":2,
		"byteOffset":0,
		"min":[0.0],
		"max":[3.0]
	},
	{
		"bufferView":42,
		"type":"VEC3",
		"componentType":5126,
		"count":2,
		"byteOffset":8,
		"min":[1.0,
		1.0,
		1.0],
		"max":[1.0,
		1.0,
		1.0]
	},
	{
		"bufferView":43,
		"type":"SCALAR",
		"componentType":5123,
		"count":102,
		"byteOffset":0,
		"min":[0],
		"max":[51]
	},
	{
		"bufferView":44,
		"type":"VEC3",
		"componentType":5126,
		"count":52,
		"byteOffset":0,
		"min":[40.0,
		1.5,
		-20.0],
		"max":[80.0,
		40.0,
		0.0]
	},
	{
		"bufferView":44,
		"type":"VEC2",
		"componentType":5126,
		"count":52,
		"byteOffset":12,
		"min":[-157.48031616210938,
		-150.57479858398438],
		"max":[157.48031616210938,
		1.0]
	}],
	"bufferViews":[{
		"buffer":0,
		"byteOffset":0,
		"byteLength":72,
		"target":34963
	},
	{
		"buffer":0,
		"byteOffset":72,
		"byteLength":420,
		"target":34962,
		"byteStride":20
	},
	{
		"buffer":1,
		"byteOffset":0,
		"byteLength":32
	},
	{
		"buffer":1,
		"byteOffset":32,
		"byteLength":40
	},
	{
		"buffer":1,
		"byteOffset":72,
		"byteLength":32
	},
	{
		"buffer":2,
		"byteOffset":0,
		"byteLength":32
	},
	{
		"buffer":2,
		"byteOffset":32,
		"byteLength":40
	},
	{
		"buffer":2,
		"byteOffset":72,
		"byteLength":32
	},
	{
		"buffer":3,
		"byteOffset":0,
		"byteLength":48
	},
	{
		"buffer":3,
		"byteOffset":48,
		"byteLength":40
	},
	{
		"buffer":3,
		"byteOffset":88,
		"byteLength":32
	},
	{
		"buffer":4,
		"byteOffset":0,
		"byteLength":48
	},
	{
		"buffer":4,
		"byteOffset":48,
		"byteLength":40
	},
	{
		"buffer":4,
		"byteOffset":88,
		"byteLength":32
	},
	{
		"buffer":5,
		"byteOffset":0,
		"byteLength":48
	},
	{
		"buffer":5,
		"byteOffset":48,
		"byteLength":40
	},
	{
		"buffer":5,
		"byteOffset":88,
		"byteLength":32
	},
	{
		"buffer":6,
		"byteOffset":0,
		"byteLength":84,
		"target":34963
	},
	{
		"buffer":6,
		"byteOffset":84,
		"byteLength":480,
		"target":34962,
		"byteStride":20
	},
	{
		"buffer":7,
		"byteOffset":0,
		"byteLength":32
	},
	{
		"buffer":7,
		"byteOffset":32,
		"byteLength":40
	},
	{
		"buffer":7,
		"byteOffset":72,
		"byteLength":32
	},
	{
		"buffer":8,
		"byteOffset":0,
		"byteLength":156,
		"target":34963
	},
	{
		"buffer":8,
		"byteOffset":156,
		"byteLength":840,
		"target":34962,
		"byteStride":20
	},
	{
		"buffer":9,
		"byteOffset":0,
		"byteLength":156,
		"target":34963
	},
	{
		"buffer":9,
		"byteOffset":156,
		"byteLength":800,
		"target":34962,
		"byteStride":20
	},
	{
		"buffer":10,
		"byteOffset":0,
		"byteLength":48
	},
	{
		"buffer":10,
		"byteOffset":48,
		"byteLength":40
	},
	{
		"buffer":10,
		"byteOffset":88,
		"byteLength":32
	},
	{
		"buffer":11,
		"byteOffset":0,
		"byteLength":36,
		"target":34963
	},
	{
		"buffer":11,
		"byteOffset":36,
		"byteLength":240,
		"target":34962,
		"byteStride":20
	},
	{
		"buffer":12,
		"byteOffset":0,
		"byteLength":36,
		"target":34963
	},
	{
		"buffer":12,
		"byteOffset":36,
		"byteLength":240,
		"target":34962,
		"byteStride":20
	},
	{
		"buffer":13,
		"byteOffset":0,
		"byteLength":48
	},
	{
		"buffer":13,
		"byteOffset":48,
		"byteLength":40
	},
	{
		"buffer":13,
		"byteOffset":88,
		"byteLength":32
	},
	{
		"buffer":14,
		"byteOffset":0,
		"byteLength":276,
		"target":34963
	},
	{
		"buffer":14,
		"byteOffset":276,
		"byteLength":1360,
		"target":34962,
		"byteStride":20
	},
	{
		"buffer":15,
		"byteOffset":0,
		"byteLength":36,
		"target":34963
	},
	{
		"buffer":15,
		"byteOffset":36,
		"byteLength":240,
		"target":34962,
		"byteStride":20
	},
	{
		"buffer":16,
		"byteOffset":0,
		"byteLength":48
	},
	{
		"buffer":16,
		"byteOffset":48,
		"byteLength":40
	},
	{
		"buffer":16,
		"byteOffset":88,
		"byteLength":32
	},
	{
		"buffer":17,
		"byteOffset":0,
		"byteLength":204,
		"target":34963
	},
	{
		"buffer":17,
		"byteOffset":204,
		"byteLength":1040,
		"target":34962,
		"byteStride":20
	}],
	"buffers":[{
		"uri":"data:application/octet-stream;base64,",
		"byteLength":492
	},
	{
		"uri":"data:application/octet-stream;base64,",
		"byteLength":104
	},
	{
		"uri":"data:application/octet-stream;base64,",
		"byteLength":104
	},
	{
		"uri":"data:application/octet-stream;base64,",
		"byteLength":120
	},
	{
		"uri":"data:application/octet-stream;base64,",
		"byteLength":120
	},
	{
		"uri":"data:application/octet-stream;base64,",
		"byteLength":120
	},
	{
		"uri":"data:application/octet-stream;base64,",
		"byteLength":564
	},
	{
		"uri":"data:application/octet-stream;base64,",
		"byteLength":104
	},
	{
		"uri":"data:application/octet-stream;base64,",
		"byteLength":996
	},
	{
		"uri":"data:application/octet-stream;base64,",
		"byteLength":956
	},
	{
		"uri":"data:application/octet-stream;base64,",
		"byteLength":120
	},
	{
		"uri":"data:application/octet-stream;base64,",
		"byteLength":276
	},
	{
		"uri":"data:application/octet-stream;base64,",
		"byteLength":276
	},
	{
		"uri":"data:application/octet-stream;base64,",
		"byteLength":120
	},
	{
		"uri":"data:application/octet-stream;base64,",
		"byteLength":1636
	},
	{
		"uri":"data:application/octet-stream;base64,",
		"byteLength":276
	},
	{
		"uri":"data:application/octet-stream;base64,",
		"byteLength":120
	},
	{
		"uri":"data:application/octet-stream;base64,",
		"byteLength":1244
	}],
	"materials":[{
		"pbrMetallicRoughness":{
			"baseColorFactor":[1.0,
			1.0,
			1.0,
			1.0],
			"metallicFactor":0.0,
			"roughnessFactor":0.5678071905112637
		},
		"emissiveFactor":[0.0,
		0.0,
		0.0],
		"alphaMode":"OPAQUE",
		"doubleSided":false,
		"name":"FrontColor"
	},
	{
		"pbrMetallicRoughness":{
			"baseColorFactor":[1.0,
			0.8,
			0.8980392156862749,
			1.0],
			"metallicFactor":0.0,
			"roughnessFactor":0.5678071905112637
		},
		"emissiveFactor":[0.0,
		0.0,
		0.0],
		"alphaMode":"OPAQUE",
		"doubleSided":false,
		"name":"Color_L01"
	},
	{
		"pbrMetallicRoughness":{
			"baseColorFactor":[1.0,
			1.0,
			0.6,
			1.0],
			"metallicFactor":0.0,
			"roughnessFactor":0.5678071905112637
		},
		"emissiveFactor":[0.0,
		0.0,
		0.0],
		"alphaMode":"OPAQUE",
		"doubleSided":false,
		"name":"Color_E02"
	}],
	"animations":[{
		"samplers":[{
			"input":3,
			"interpolation":"LINEAR",
			"output":4
		},
		{
			"input":5,
			"interpolation":"LINEAR",
			"output":6
		},
		{
			"input":7,
			"interpolation":"LINEAR",
			"output":8
		},
		{
			"input":9,
			"interpolation":"LINEAR",
			"output":10
		},
		{
			"input":11,
			"interpolation":"LINEAR",
			"output":12
		},
		{
			"input":13,
			"interpolation":"LINEAR",
			"output":14
		},
		{
			"input":15,
			"interpolation":"LINEAR",
			"output":16
		},
		{
			"input":17,
			"interpolation":"LINEAR",
			"output":18
		},
		{
			"input":19,
			"interpolation":"LINEAR",
			"output":20
		},
		{
			"input":21,
			"interpolation":"LINEAR",
			"output":22
		},
		{
			"input":23,
			"interpolation":"LINEAR",
			"output":24
		},
		{
			"input":25,
			"interpolation":"LINEAR",
			"output":26
		},
		{
			"input":27,
			"interpolation":"LINEAR",
			"output":28
		},
		{
			"input":29,
			"interpolation":"LINEAR",
			"output":30
		},
		{
			"input":31,
			"interpolation":"LINEAR",
			"output":32
		},
		{
			"input":36,
			"interpolation":"LINEAR",
			"output":37
		},
		{
			"input":38,
			"interpolation":"LINEAR",
			"output":39
		},
		{
			"input":40,
			"interpolation":"LINEAR",
			"output":41
		},
		{
			"input":48,
			"interpolation":"LINEAR",
			"output":49
		},
		{
			"input":50,
			"interpolation":"LINEAR",
			"output":51
		},
		{
			"input":52,
			"interpolation":"LINEAR",
			"output":53
		},
		{
			"input":60,
			"interpolation":"LINEAR",
			"output":61
		},
		{
			"input":62,
			"interpolation":"LINEAR",
			"output":63
		},
		{
			"input":64,
			"interpolation":"LINEAR",
			"output":65
		},
		{
			"input":72,
			"interpolation":"LINEAR",
			"output":73
		},
		{
			"input":74,
			"interpolation":"LINEAR",
			"output":75
		},
		{
			"input":76,
			"interpolation":"LINEAR",
			"output":77
		}],
		"channels":[{
			"target":{
				"node":0,
				"path":"translation"
			},
			"sampler":0
		},
		{
			"target":{
				"node":0,
				"path":"rotation"
			},
			"sampler":1
		},
		{
			"target":{
				"node":0,
				"path":"scale"
			},
			"sampler":2
		},
		{
			"target":{
				"node":1,
				"path":"translation"
			},
			"sampler":3
		},
		{
			"target":{
				"node":1,
				"path":"rotation"
			},
			"sampler":4
		},
		{
			"target":{
				"node":1,
				"path":"scale"
			},
			"sampler":5
		},
		{
			"target":{
				"node":2,
				"path":"translation"
			},
			"sampler":6
		},
		{
			"target":{
				"node":2,
				"path":"rotation"
			},
			"sampler":7
		},
		{
			"target":{
				"node":2,
				"path":"scale"
			},
			"sampler":8
		},
		{
			"target":{
				"node":3,
				"path":"translation"
			},
			"sampler":9
		},
		{
			"target":{
				"node":3,
				"path":"rotation"
			},
			"sampler":10
		},
		{
			"target":{
				"node":3,
				"path":"scale"
			},
			"sampler":11
		},
		{
			"target":{
				"node":4,
				"path":"translation"
			},
			"sampler":12
		},
		{
			"target":{
				"node":4,
				"path":"rotation"
			},
			"sampler":13
		},
		{
			"target":{
				"node":4,
				"path":"scale"
			},
			"sampler":14
		},
		{
			"target":{
				"node":5,
				"path":"translation"
			},
			"sampler":15
		},
		{
			"target":{
				"node":5,
				"path":"rotation"
			},
			"sampler":16
		},
		{
			"target":{
				"node":5,
				"path":"scale"
			},
			"sampler":17
		},
		{
			"target":{
				"node":7,
				"path":"translation"
			},
			"sampler":18
		},
		{
			"target":{
				"node":7,
				"path":"rotation"
			},
			"sampler":19
		},
		{
			"target":{
				"node":7,
				"path":"scale"
			},
			"sampler":20
		},
		{
			"target":{
				"node":9,
				"path":"translation"
			},
			"sampler":21
		},
		{
			"target":{
				"node":9,
				"path":"rotation"
			},
			"sampler":22
		},
		{
			"target":{
				"node":9,
				"path":"scale"
			},
			"sampler":23
		},
		{
			"target":{
				"node":11,
				"path":"translation"
			},
			"sampler":24
		},
		{
			"target":{
				"node":11,
				"path":"rotation"
			},
			"sampler":25
		},
		{
			"target":{
				"node":11,
				"path":"scale"
			},
			"sampler":26
		}]
	}]
}