{
	"asset":{
		"version":"2.0",
		"generator":""
	},
	"scenes":[{
		"nodes":[0,
		1,
		2,
		3]
	}],
	"nodes":[{
		"name":"Mesh1",
		"mesh":0,
		"rotation":[0.0,
		0.0,
		0.0,
		-1.0],
		"translation":[0.0,
		0.0,
		0.0],
		"scale":[1.0,
		1.0,
		1.0]
	},
	{
		"name":"Mesh2.1",
		"rotation":[0.0,
		0.0,
		0.0,
		-1.0],
		"translation":[0.0,
		0.0,
		0.0],
		"scale":[1.0,
		1.0,
		1.0],
		"children":[4,
		5]
	},
	{
		"name":"Mesh2",
		"rotation":[0.0,
		0.0,
		0.0,
		-1.0],
		"translation":[0.0,
		0.0,
		0.0],
		"scale":[1.0,
		1.0,
		1.0],
		"children":[6,
		7]
	},
	{
		"name":"Mesh8",
		"mesh":1,
		"rotation":[0.0,
		0.0,
		0.0,
		-1.0],
		"translation":[0.0,
		0.0,
		0.0],
		"scale":[1.0,
		1.0,
		1.0]
	},
	{
		"name":"Mesh2.1-Color_M09",
		"mesh":2,
		"rotation":[0.0,
		0.0,
		0.0,
		-1.0],
		"translation":[0.0,
		0.0,
		0.0],
		"scale":[1.0,
		1.0,
		1.0]
	},
	{
		"name":"Mesh2.1-FrontColor",
		"mesh":3
	},
	{
		"name":"Mesh2-Color_M09",
		"mesh":4,
		"rotation":[0.0,
		0.0,
		0.0,
		-1.0],
		"translation":[0.0,
		0.0,
		0.0],
		"scale":[1.0,
		1.0,
		1.0]
	},
	{
		"name":"Mesh2-FrontColor",
		"mesh":5
	}],
	"meshes":[{
		"name":"Mesh1",
		"primitives":[{
			"attributes":{
				"POSITION":1,
				"TEXCOORD_0":2
			},
			"indices":0,
			"material":0
		}]
	},
	{
		"name":"Mesh8",
		"primitives":[{
			"attributes":{
				"POSITION":22,
				"TEXCOORD_0":23
			},
			"indices":21,
			"material":0
		}]
	},
	{
		"name":"Mesh2.1-Color_M09",
		"primitives":[{
			"attributes":{
				"POSITION":31,
				"TEXCOORD_0":32
			},
			"indices":30,
			"material":1
		}]
	},
	{
		"name":"Mesh2.1-FrontColor",
		"primitives":[{
			"attributes":{
				"POSITION":40,
				"TEXCOORD_0":41
			},
			"indices":39,
			"material":0
		}]
	},
	{
		"name":"Mesh2-Color_M09",
		"primitives":[{
			"attributes":{
				"POSITION":43,
				"TEXCOORD_0":44
			},
			"indices":42,
			"material":1
		}]
	},
	{
		"name":"Mesh2-FrontColor",
		"primitives":[{
			"attributes":{
				"POSITION":52,
				"TEXCOORD_0":53
			},
			"indices":51,
			"material":0
		}]
	}],
	"accessors":[{
		"bufferView":0,
		"type":"SCALAR",
		"componentType":5123,
		"count":36,
		"byteOffset":0,
		"min":[0],
		"max":[20]
	},
	{
		"bufferView":1,
		"type":"VEC3",
		"componentType":5126,
		"count":21,
		"byteOffset":0,
		"min":[0.0,
		0.0,
		-0.03999999910593033],
		"max":[0.07999999821186066,
		0.0010000000474974514,
		0.0]
	},
	{
		"bufferView":1,
		"type":"VEC2",
		"componentType":5126,
		"count":21,
		"byteOffset":12,
		"min":[-314.96063232421877,
		-156.48031616210938],
		"max":[314.96063232421877,
		1.0]
	},
	{
		"bufferView":2,
		"type":"SCALAR",
		"componentType":5126,
		"count":2,
		"byteOffset":0,
		"min":[0.0],
		"max":[3.0]
	},
	{
		"bufferView":2,
		"type":"VEC3",
		"componentType":5126,
		"count":2,
		"byteOffset":8,
		"min":[0.0,
		0.0,
		0.0],
		"max":[0.0,
		0.0,
		0.0]
	},
	{
		"bufferView":3,
		"type":"SCALAR",
		"componentType":5126,
		"count":2,
		"byteOffset":0,
		"min":[0.0],
		"max":[3.0]
	},
	{
		"bufferView":3,
		"type":"VEC4",
		"componentType":5126,
		"count":2,
		"byteOffset":8,
		"min":[0.0,
		0.0,
		0.0,
		-1.0],
		"max":[0.0,
		0.0,
		0.0,
		-1.0]
	},
	{
		"bufferView":4,
		"type":"SCALAR",
		"componentType":5126,
		"count":2,
		"byteOffset":0,
		"min":[0.0],
		"max":[3.0]
	},
	{
		"bufferView":4,
		"type":"VEC3",
		"componentType":5126,
		"count":2,
		"byteOffset":8,
		"min":[1.0,
		1.0,
		1.0],
		"max":[1.0,
		1.0,
		1.0]
	},
	{
		"bufferView":5,
		"type":"SCALAR",
		"componentType":5126,
		"count":3,
		"byteOffset":0,
		"min":[0.0],
		"max":[3.0]
	},
	{
		"bufferView":5,
		"type":"VEC3",
		"componentType":5126,
		"count":3,
		"byteOffset":12,
		"min":[0.0,
		0.0,
		-0.08318138867616654],
		"max":[0.0,
		0.0,
		0.0]
	},
	{
		"bufferView":6,
		"type":"SCALAR",
		"componentType":5126,
		"count":2,
		"byteOffset":0,
		"min":[0.0],
		"max":[3.0]
	},
	{
		"bufferView":6,
		"type":"VEC4",
		"componentType":5126,
		"count":2,
		"byteOffset":8,
		"min":[0.0,
		0.0,
		0.0,
		-1.0],
		"max":[0.0,
		0.0,
		0.0,
		-1.0]
	},
	{
		"bufferView":7,
		"type":"SCALAR",
		"componentType":5126,
		"count":2,
		"byteOffset":0,
		"min":[0.0],
		"max":[3.0]
	},
	{
		"bufferView":7,
		"type":"VEC3",
		"componentType":5126,
		"count":2,
		"byteOffset":8,
		"min":[1.0,
		1.0,
		1.0],
		"max":[1.0,
		1.0,
		1.0]
	},
	{
		"bufferView":8,
		"type":"SCALAR",
		"componentType":5126,
		"count":3,
		"byteOffset":0,
		"min":[0.0],
		"max":[3.0]
	},
	{
		"bufferView":8,
		"type":"VEC3",
		"componentType":5126,
		"count":3,
		"byteOffset":12,
		"min":[0.0,
		0.0,
		0.0],
		"max":[0.0957120880484581,
		0.0,
		0.0]
	},
	{
		"bufferView":9,
		"type":"SCALAR",
		"componentType":5126,
		"count":3,
		"byteOffset":0,
		"min":[0.0],
		"max":[3.0]
	},
	{
		"bufferView":9,
		"type":"VEC4",
		"componentType":5126,
		"count":3,
		"byteOffset":12,
		"min":[0.0,
		0.0,
		0.0,
		-1.0],
		"max":[0.0,
		0.0,
		0.0,
		-1.0]
	},
	{
		"bufferView":10,
		"type":"SCALAR",
		"componentType":5126,
		"count":3,
		"byteOffset":0,
		"min":[0.0],
		"max":[3.0]
	},
	{
		"bufferView":10,
		"type":"VEC3",
		"componentType":5126,
		"count":3,
		"byteOffset":12,
		"min":[1.0,
		1.0,
		1.0],
		"max":[1.0,
		1.0,
		1.0]
	},
	{
		"bufferView":11,
		"type":"SCALAR",
		"componentType":5123,
		"count":492,
		"byteOffset":0,
		"min":[0],
		"max":[299]
	},
	{
		"bufferView":12,
		"type":"VEC3",
		"componentType":5126,
		"count":300,
		"byteOffset":0,
		"min":[0.0,
		0.00010282932635163888,
		-0.03849999979138374],
		"max":[0.07999999821186066,
		0.039500001817941669,
		0.007000000216066837]
	},
	{
		"bufferView":12,
		"type":"VEC2",
		"componentType":5126,
		"count":300,
		"byteOffset":12,
		"min":[-157.48031616210938,
		-143.17816162109376],
		"max":[157.48031616210938,
		121.47244262695313]
	},
	{
		"bufferView":13,
		"type":"SCALAR",
		"componentType":5126,
		"count":2,
		"byteOffset":0,
		"min":[0.0],
		"max":[3.0]
	},
	{
		"bufferView":13,
		"type":"VEC3",
		"componentType":5126,
		"count":2,
		"byteOffset":8,
		"min":[0.0,
		0.0,
		0.0],
		"max":[0.0,
		0.0,
		0.0]
	},
	{
		"bufferView":14,
		"type":"SCALAR",
		"componentType":5126,
		"count":2,
		"byteOffset":0,
		"min":[0.0],
		"max":[3.0]
	},
	{
		"bufferView":14,
		"type":"VEC4",
		"componentType":5126,
		"count":2,
		"byteOffset":8,
		"min":[0.0,
		0.0,
		0.0,
		-1.0],
		"max":[0.0,
		0.0,
		0.0,
		-1.0]
	},
	{
		"bufferView":15,
		"type":"SCALAR",
		"componentType":5126,
		"count":2,
		"byteOffset":0,
		"min":[0.0],
		"max":[3.0]
	},
	{
		"bufferView":15,
		"type":"VEC3",
		"componentType":5126,
		"count":2,
		"byteOffset":8,
		"min":[1.0,
		1.0,
		1.0],
		"max":[1.0,
		1.0,
		1.0]
	},
	{
		"bufferView":16,
		"type":"SCALAR",
		"componentType":5123,
		"count":96,
		"byteOffset":0,
		"min":[0],
		"max":[39]
	},
	{
		"bufferView":17,
		"type":"VEC3",
		"componentType":5126,
		"count":40,
		"byteOffset":0,
		"min":[0.04899999871850014,
		0.0010000000474974514,
		-0.03999999910593033],
		"max":[0.05000000074505806,
		0.050999999046325687,
		-1.776356799695581e-17]
	},
	{
		"bufferView":17,
		"type":"VEC2",
		"componentType":5126,
		"count":40,
		"byteOffset":12,
		"min":[-318.6977233886719,
		-317.69769287109377],
		"max":[318.6977233886719,
		-2.9370079040527345]
	},
	{
		"bufferView":18,
		"type":"SCALAR",
		"componentType":5126,
		"count":3,
		"byteOffset":0,
		"min":[0.0],
		"max":[3.0]
	},
	{
		"bufferView":18,
		"type":"VEC3",
		"componentType":5126,
		"count":3,
		"byteOffset":12,
		"min":[0.0,
		0.0,
		-0.08318138867616654],
		"max":[0.0,
		0.0,
		0.0]
	},
	{
		"bufferView":19,
		"type":"SCALAR",
		"componentType":5126,
		"count":2,
		"byteOffset":0,
		"min":[0.0],
		"max":[3.0]
	},
	{
		"bufferView":19,
		"type":"VEC4",
		"componentType":5126,
		"count":2,
		"byteOffset":8,
		"min":[0.0,
		0.0,
		0.0,
		-1.0],
		"max":[0.0,
		0.0,
		0.0,
		-1.0]
	},
	{
		"bufferView":20,
		"type":"SCALAR",
		"componentType":5126,
		"count":2,
		"byteOffset":0,
		"min":[0.0],
		"max":[3.0]
	},
	{
		"bufferView":20,
		"type":"VEC3",
		"componentType":5126,
		"count":2,
		"byteOffset":8,
		"min":[1.0,
		1.0,
		1.0],
		"max":[1.0,
		1.0,
		1.0]
	},
	{
		"bufferView":21,
		"type":"SCALAR",
		"componentType":5123,
		"count":48,
		"byteOffset":0,
		"min":[0],
		"max":[31]
	},
	{
		"bufferView":22,
		"type":"VEC3",
		"componentType":5126,
		"count":32,
		"byteOffset":0,
		"min":[0.04899999871850014,
		0.0010000000474974514,
		-0.03999999910593033],
		"max":[0.05000000074505806,
		0.050999999046325687,
		-1.776356799695581e-17]
	},
	{
		"bufferView":22,
		"type":"VEC2",
		"componentType":5126,
		"count":32,
		"byteOffset":12,
		"min":[-259.52752685546877,
		-317.69769287109377],
		"max":[259.52752685546877,
		-2.9370079040527345]
	},
	{
		"bufferView":23,
		"type":"SCALAR",
		"componentType":5123,
		"count":84,
		"byteOffset":0,
		"min":[0],
		"max":[23]
	},
	{
		"bufferView":24,
		"type":"VEC3",
		"componentType":5126,
		"count":24,
		"byteOffset":0,
		"min":[0.0,
		0.0010000000474974514,
		-0.013500000350177288],
		"max":[0.07999999821186066,
		0.03849999979138374,
		-0.012500000186264515]
	},
	{
		"bufferView":24,
		"type":"VEC2",
		"componentType":5126,
		"count":24,
		"byteOffset":12,
		"min":[-314.96063232421877,
		-146.63778686523438],
		"max":[314.96063232421877,
		1.0]
	},
	{
		"bufferView":25,
		"type":"SCALAR",
		"componentType":5126,
		"count":3,
		"byteOffset":0,
		"min":[0.0],
		"max":[3.0]
	},
	{
		"bufferView":25,
		"type":"VEC3",
		"componentType":5126,
		"count":3,
		"byteOffset":12,
		"min":[0.0,
		0.0,
		0.0],
		"max":[0.0957120880484581,
		0.0,
		0.0]
	},
	{
		"bufferView":26,
		"type":"SCALAR",
		"componentType":5126,
		"count":3,
		"byteOffset":0,
		"min":[0.0],
		"max":[3.0]
	},
	{
		"bufferView":26,
		"type":"VEC4",
		"componentType":5126,
		"count":3,
		"byteOffset":12,
		"min":[0.0,
		0.0,
		0.0,
		-1.0],
		"max":[0.0,
		0.0,
		0.0,
		-1.0]
	},
	{
		"bufferView":27,
		"type":"SCALAR",
		"componentType":5126,
		"count":3,
		"byteOffset":0,
		"min":[0.0],
		"max":[3.0]
	},
	{
		"bufferView":27,
		"type":"VEC3",
		"componentType":5126,
		"count":3,
		"byteOffset":12,
		"min":[1.0,
		1.0,
		1.0],
		"max":[1.0,
		1.0,
		1.0]
	},
	{
		"bufferView":28,
		"type":"SCALAR",
		"componentType":5123,
		"count":72,
		"byteOffset":0,
		"min":[0],
		"max":[46]
	},
	{
		"bufferView":29,
		"type":"VEC3",
		"componentType":5126,
		"count":47,
		"byteOffset":0,
		"min":[0.0,
		0.0010000000474974514,
		-0.013500000350177288],
		"max":[0.07999999821186066,
		0.03849999979138374,
		-0.012500000186264515]
	},
	{
		"bufferView":29,
		"type":"VEC2",
		"componentType":5126,
		"count":47,
		"byteOffset":12,
		"min":[-314.96063232421877,
		-146.63778686523438],
		"max":[314.96063232421877,
		1.0]
	}],
	"bufferViews":[{
		"buffer":0,
		"byteOffset":0,
		"byteLength":72,
		"target":34963
	},
	{
		"buffer":0,
		"byteOffset":72,
		"byteLength":420,
		"target":34962,
		"byteStride":20
	},
	{
		"buffer":1,
		"byteOffset":0,
		"byteLength":32
	},
	{
		"buffer":1,
		"byteOffset":32,
		"byteLength":40
	},
	{
		"buffer":1,
		"byteOffset":72,
		"byteLength":32
	},
	{
		"buffer":2,
		"byteOffset":0,
		"byteLength":48
	},
	{
		"buffer":2,
		"byteOffset":48,
		"byteLength":40
	},
	{
		"buffer":2,
		"byteOffset":88,
		"byteLength":32
	},
	{
		"buffer":3,
		"byteOffset":0,
		"byteLength":48
	},
	{
		"buffer":3,
		"byteOffset":48,
		"byteLength":60
	},
	{
		"buffer":3,
		"byteOffset":108,
		"byteLength":48
	},
	{
		"buffer":4,
		"byteOffset":0,
		"byteLength":984,
		"target":34963
	},
	{
		"buffer":4,
		"byteOffset":984,
		"byteLength":6000,
		"target":34962,
		"byteStride":20
	},
	{
		"buffer":5,
		"byteOffset":0,
		"byteLength":32
	},
	{
		"buffer":5,
		"byteOffset":32,
		"byteLength":40
	},
	{
		"buffer":5,
		"byteOffset":72,
		"byteLength":32
	},
	{
		"buffer":6,
		"byteOffset":0,
		"byteLength":192,
		"target":34963
	},
	{
		"buffer":6,
		"byteOffset":192,
		"byteLength":800,
		"target":34962,
		"byteStride":20
	},
	{
		"buffer":7,
		"byteOffset":0,
		"byteLength":48
	},
	{
		"buffer":7,
		"byteOffset":48,
		"byteLength":40
	},
	{
		"buffer":7,
		"byteOffset":88,
		"byteLength":32
	},
	{
		"buffer":8,
		"byteOffset":0,
		"byteLength":96,
		"target":34963
	},
	{
		"buffer":8,
		"byteOffset":96,
		"byteLength":640,
		"target":34962,
		"byteStride":20
	},
	{
		"buffer":9,
		"byteOffset":0,
		"byteLength":168,
		"target":34963
	},
	{
		"buffer":9,
		"byteOffset":168,
		"byteLength":480,
		"target":34962,
		"byteStride":20
	},
	{
		"buffer":10,
		"byteOffset":0,
		"byteLength":48
	},
	{
		"buffer":10,
		"byteOffset":48,
		"byteLength":60
	},
	{
		"buffer":10,
		"byteOffset":108,
		"byteLength":48
	},
	{
		"buffer":11,
		"byteOffset":0,
		"byteLength":144,
		"target":34963
	},
	{
		"buffer":11,
		"byteOffset":144,
		"byteLength":940,
		"target":34962,
		"byteStride":20
	}],
	"buffers":[{
		"uri":"data:application/octet-stream;base64,",
		"byteLength":492
	},
	{
		"uri":"data:application/octet-stream;base64,",
		"byteLength":104
	},
	{
		"uri":"data:application/octet-stream;base64,",
		"byteLength":120
	},
	{
		"uri":"data:application/octet-stream;base64,",
		"byteLength":156
	},
	{
		"uri":"data:application/octet-stream;base64,",
		"byteLength":6984
	},
	{
		"uri":"data:application/octet-stream;base64,",
		"byteLength":104
	},
	{
		"uri":"data:application/octet-stream;base64,",
		"byteLength":992
	},
	{
		"uri":"data:application/octet-stream;base64,",
		"byteLength":120
	},
	{
		"uri":"data:application/octet-stream;base64,",
		"byteLength":736
	},
	{
		"uri":"data:application/octet-stream;base64,",
		"byteLength":648
	},
	{
		"uri":"data:application/octet-stream;base64,",
		"byteLength":156
	},
	{
		"uri":"data:application/octet-stream;base64,",
		"byteLength":1084
	}],
	"materials":[{
		"pbrMetallicRoughness":{
			"baseColorFactor":[1.0,
			1.0,
			1.0,
			1.0],
			"metallicFactor":0.0,
			"roughnessFactor":0.5678071905112637
		},
		"emissiveFactor":[0.0,
		0.0,
		0.0],
		"alphaMode":"OPAQUE",
		"doubleSided":false,
		"name":"FrontColor"
	},
	{
		"pbrMetallicRoughness":{
			"baseColorFactor":[0.0,
			0.0,
			0.0,
			1.0],
			"metallicFactor":0.0,
			"roughnessFactor":0.5678071905112637
		},
		"emissiveFactor":[0.0,
		0.0,
		0.0],
		"alphaMode":"OPAQUE",
		"doubleSided":false,
		"name":"Color_M09"
	}],
	"animations":[{
		"samplers":[{
			"input":3,
			"interpolation":"LINEAR",
			"output":4
		},
		{
			"input":5,
			"interpolation":"LINEAR",
			"output":6
		},
		{
			"input":7,
			"interpolation":"LINEAR",
			"output":8
		},
		{
			"input":9,
			"interpolation":"LINEAR",
			"output":10
		},
		{
			"input":11,
			"interpolation":"LINEAR",
			"output":12
		},
		{
			"input":13,
			"interpolation":"LINEAR",
			"output":14
		},
		{
			"input":15,
			"interpolation":"LINEAR",
			"output":16
		},
		{
			"input":17,
			"interpolation":"LINEAR",
			"output":18
		},
		{
			"input":19,
			"interpolation":"LINEAR",
			"output":20
		},
		{
			"input":24,
			"interpolation":"LINEAR",
			"output":25
		},
		{
			"input":26,
			"interpolation":"LINEAR",
			"output":27
		},
		{
			"input":28,
			"interpolation":"LINEAR",
			"output":29
		},
		{
			"input":33,
			"interpolation":"LINEAR",
			"output":34
		},
		{
			"input":35,
			"interpolation":"LINEAR",
			"output":36
		},
		{
			"input":37,
			"interpolation":"LINEAR",
			"output":38
		},
		{
			"input":45,
			"interpolation":"LINEAR",
			"output":46
		},
		{
			"input":47,
			"interpolation":"LINEAR",
			"output":48
		},
		{
			"input":49,
			"interpolation":"LINEAR",
			"output":50
		}],
		"channels":[{
			"target":{
				"node":0,
				"path":"translation"
			},
			"sampler":0
		},
		{
			"target":{
				"node":0,
				"path":"rotation"
			},
			"sampler":1
		},
		{
			"target":{
				"node":0,
				"path":"scale"
			},
			"sampler":2
		},
		{
			"target":{
				"node":1,
				"path":"translation"
			},
			"sampler":3
		},
		{
			"target":{
				"node":1,
				"path":"rotation"
			},
			"sampler":4
		},
		{
			"target":{
				"node":1,
				"path":"scale"
			},
			"sampler":5
		},
		{
			"target":{
				"node":2,
				"path":"translation"
			},
			"sampler":6
		},
		{
			"target":{
				"node":2,
				"path":"rotation"
			},
			"sampler":7
		},
		{
			"target":{
				"node":2,
				"path":"scale"
			},
			"sampler":8
		},
		{
			"target":{
				"node":3,
				"path":"translation"
			},
			"sampler":9
		},
		{
			"target":{
				"node":3,
				"path":"rotation"
			},
			"sampler":10
		},
		{
			"target":{
				"node":3,
				"path":"scale"
			},
			"sampler":11
		},
		{
			"target":{
				"node":4,
				"path":"translation"
			},
			"sampler":12
		},
		{
			"target":{
				"node":4,
				"path":"rotation"
			},
			"sampler":13
		},
		{
			"target":{
				"node":4,
				"path":"scale"
			},
			"sampler":14
		},
		{
			"target":{
				"node":6,
				"path":"translation"
			},
			"sampler":15
		},
		{
			"target":{
				"node":6,
				"path":"rotation"
			},
			"sampler":16
		},
		{
			"target":{
				"node":6,
				"path":"scale"
			},
			"sampler":17
		}]
	}]
}