{"asset":{"version":"2.0","generator":""},"scenes":[{"nodes":[0,1,2]}],"nodes":[{"name":"Mesh3","mesh":0,"translation":[0.0,0.0,0.0],"rotation":[0,0,0,1],"scale":[1.0,1.0,1.0]},{"name":"Mesh1","translation":[0.0,0.0,0.0],"rotation":[0,0,0,1],"scale":[1.0,1.0,1.0],"children":[3,4,5]},{"name":"Mesh11","mesh":1,"translation":[0.0,0.0,0.0],"rotation":[0,0,0,1],"scale":[1.0,1.0,1.0],"children":[6]},{"name":"Mesh1-M_0061_OliveDrab","mesh":2,"translation":[0.0,0.0,0.0],"rotation":[0,0,0,1],"scale":[1.0,1.0,1.0]},{"name":"Mesh1-FrontColor","mesh":3},{"name":"Mesh1-M_0044_DarkGoldenrod","mesh":4},{"name":"Mesh1-M_0061_OliveDrab","mesh":5}],"accessors":[{"bufferView":0,"type":"SCALAR","componentType":5123,"count":1200,"byteOffset":0,"min":[0],"max":[597]},{"bufferView":1,"type":"VEC3","componentType":5126,"count":598,"byteOffset":0,"min":[0.0,0.0,-40.0],"max":[80.0,11.0,0.0]},{"bufferView":1,"type":"VEC2","componentType":5126,"count":598,"byteOffset":12,"min":[-314.96063232421875,-156.48031616210938],"max":[314.96063232421875,1.0]},{"bufferView":2,"type":"SCALAR","componentType":5126,"count":2,"byteOffset":0,"min":[0.0],"max":[3.0]},{"bufferView":2,"type":"VEC3","componentType":5126,"count":2,"byteOffset":8,"min":[0.0,0.0,0.0],"max":[0.0,0.0,0.0]},{"bufferView":3,"type":"SCALAR","componentType":5126,"count":2,"byteOffset":0,"min":[0.0],"max":[3.0]},{"bufferView":3,"type":"VEC4","componentType":5126,"count":2,"byteOffset":8,"min":[0.0,0.0,0.0,-1.0],"max":[0.0,0.0,0.0,-1.0]},{"bufferView":4,"type":"SCALAR","componentType":5126,"count":2,"byteOffset":0,"min":[0.0],"max":[3.0]},{"bufferView":4,"type":"VEC3","componentType":5126,"count":2,"byteOffset":8,"min":[1.0,1.0,1.0],"max":[1.0,1.0,1.0]},{"bufferView":5,"type":"SCALAR","componentType":5126,"count":3,"byteOffset":0,"min":[0.0],"max":[3.0]},{"bufferView":5,"type":"VEC3","componentType":5126,"count":3,"byteOffset":12,"min":[0.0,0.0,0.0],"max":[0.0,0.0,75.5073471069336]},{"bufferView":6,"type":"SCALAR","componentType":5126,"count":2,"byteOffset":0,"min":[0.0],"max":[3.0]},{"bufferView":6,"type":"VEC4","componentType":5126,"count":2,"byteOffset":8,"min":[0.0,0.0,0.0,-1.0],"max":[0.0,0.0,0.0,-1.0]},{"bufferView":7,"type":"SCALAR","componentType":5126,"count":2,"byteOffset":0,"min":[0.0],"max":[3.0]},{"bufferView":7,"type":"VEC3","componentType":5126,"count":2,"byteOffset":8,"min":[1.0,1.0,1.0],"max":[1.0,1.0,1.0]},{"bufferView":8,"type":"SCALAR","componentType":5123,"count":108,"byteOffset":0,"min":[0],"max":[56]},{"bufferView":9,"type":"VEC3","componentType":5126,"count":57,"byteOffset":0,"min":[0.0,1.0,-40.0],"max":[28.0,51.0,0.0]},{"bufferView":9,"type":"VEC2","componentType":5126,"count":57,"byteOffset":12,"min":[-157.48031616210938,-195.85037231445312],"max":[157.48031616210938,1.0]},{"bufferView":10,"type":"SCALAR","componentType":5126,"count":3,"byteOffset":0,"min":[0.0],"max":[3.0]},{"bufferView":10,"type":"VEC3","componentType":5126,"count":3,"byteOffset":12,"min":[-38.560089111328125,0.0,0.0],"max":[0.0,0.0,0.0]},{"bufferView":11,"type":"SCALAR","componentType":5126,"count":2,"byteOffset":0,"min":[0.0],"max":[3.0]},{"bufferView":11,"type":"VEC4","componentType":5126,"count":2,"byteOffset":8,"min":[0.0,0.0,0.0,-1.0],"max":[0.0,0.0,0.0,-1.0]},{"bufferView":12,"type":"SCALAR","componentType":5126,"count":2,"byteOffset":0,"min":[0.0],"max":[3.0]},{"bufferView":12,"type":"VEC3","componentType":5126,"count":2,"byteOffset":8,"min":[1.0,1.0,1.0],"max":[1.0,1.0,1.0]},{"bufferView":13,"type":"SCALAR","componentType":5123,"count":6,"byteOffset":0,"min":[0],"max":[3]},{"bufferView":14,"type":"VEC3","componentType":5126,"count":4,"byteOffset":0,"min":[55.0,1.5,-31.0],"max":[80.0,1.5,0.0]},{"bufferView":14,"type":"VEC2","componentType":5126,"count":4,"byteOffset":12,"min":[0.0,-121.0472412109375],"max":[98.4251937866211,1.0]},{"bufferView":15,"type":"SCALAR","componentType":5126,"count":3,"byteOffset":0,"min":[0.0],"max":[3.0]},{"bufferView":15,"type":"VEC3","componentType":5126,"count":3,"byteOffset":12,"min":[0.0,0.0,0.0],"max":[0.0,0.0,75.5073471069336]},{"bufferView":16,"type":"SCALAR","componentType":5126,"count":2,"byteOffset":0,"min":[0.0],"max":[3.0]},{"bufferView":16,"type":"VEC4","componentType":5126,"count":2,"byteOffset":8,"min":[0.0,0.0,0.0,-1.0],"max":[0.0,0.0,0.0,-1.0]},{"bufferView":17,"type":"SCALAR","componentType":5126,"count":2,"byteOffset":0,"min":[0.0],"max":[3.0]},{"bufferView":17,"type":"VEC3","componentType":5126,"count":2,"byteOffset":8,"min":[1.0,1.0,1.0],"max":[1.0,1.0,1.0]},{"bufferView":18,"type":"SCALAR","componentType":5123,"count":36,"byteOffset":0,"min":[0],"max":[18]},{"bufferView":19,"type":"VEC3","componentType":5126,"count":19,"byteOffset":0,"min":[55.0,1.0,-40.0],"max":[80.0,1.5,0.0]},{"bufferView":19,"type":"VEC2","componentType":5126,"count":19,"byteOffset":12,"min":[-157.48031616210938,-156.48031616210938],"max":[157.48031616210938,1.0]},{"bufferView":20,"type":"SCALAR","componentType":5123,"count":6,"byteOffset":0,"min":[0],"max":[3]},{"bufferView":21,"type":"VEC3","componentType":5126,"count":4,"byteOffset":0,"min":[55.0,1.5,-40.0],"max":[80.0,1.5,-31.0]},{"bufferView":21,"type":"VEC2","componentType":5126,"count":4,"byteOffset":12,"min":[0.0,-156.48031616210938],"max":[98.4251937866211,-121.0472412109375]},{"bufferView":22,"type":"SCALAR","componentType":5123,"count":324,"byteOffset":0,"min":[0],"max":[182]},{"bufferView":23,"type":"VEC3","componentType":5126,"count":183,"byteOffset":0,"min":[11.0,1.0,-40.0],"max":[22.0,51.0,-10.0]},{"bufferView":23,"type":"VEC2","componentType":5126,"count":183,"byteOffset":12,"min":[-78.74015808105469,-77.74015808105469],"max":[78.74015808105469,1.0]}],"meshes":[{"name":"Mesh3","primitives":[{"attributes":{"POSITION":1,"TEXCOORD_0":2},"indices":0,"material":0}]},{"name":"Mesh11","primitives":[{"attributes":{"POSITION":16,"TEXCOORD_0":17},"indices":15,"material":0}]},{"name":"Mesh1-M_0061_OliveDrab","primitives":[{"attributes":{"POSITION":25,"TEXCOORD_0":26},"indices":24,"material":1}]},{"name":"Mesh1-FrontColor","primitives":[{"attributes":{"POSITION":34,"TEXCOORD_0":35},"indices":33,"material":0}]},{"name":"Mesh1-M_0044_DarkGoldenrod","primitives":[{"attributes":{"POSITION":37,"TEXCOORD_0":38},"indices":36,"material":2}]},{"name":"Mesh1-M_0061_OliveDrab","primitives":[{"attributes":{"POSITION":40,"TEXCOORD_0":41},"indices":39,"material":1}]}],"bufferViews":[{"buffer":0,"byteOffset":0,"byteLength":2400,"target":34963},{"buffer":0,"byteOffset":2400,"byteLength":11960,"target":34962,"byteStride":20},{"buffer":1,"byteOffset":0,"byteLength":32},{"buffer":1,"byteOffset":32,"byteLength":40},{"buffer":1,"byteOffset":72,"byteLength":32},{"buffer":2,"byteOffset":0,"byteLength":48},{"buffer":2,"byteOffset":48,"byteLength":40},{"buffer":2,"byteOffset":88,"byteLength":32},{"buffer":3,"byteOffset":0,"byteLength":216,"target":34963},{"buffer":3,"byteOffset":216,"byteLength":1140,"target":34962,"byteStride":20},{"buffer":4,"byteOffset":0,"byteLength":48},{"buffer":4,"byteOffset":48,"byteLength":40},{"buffer":4,"byteOffset":88,"byteLength":32},{"buffer":5,"byteOffset":0,"byteLength":12,"target":34963},{"buffer":5,"byteOffset":12,"byteLength":80,"target":34962,"byteStride":20},{"buffer":6,"byteOffset":0,"byteLength":48},{"buffer":6,"byteOffset":48,"byteLength":40},{"buffer":6,"byteOffset":88,"byteLength":32},{"buffer":7,"byteOffset":0,"byteLength":72,"target":34963},{"buffer":7,"byteOffset":72,"byteLength":380,"target":34962,"byteStride":20},{"buffer":8,"byteOffset":0,"byteLength":12,"target":34963},{"buffer":8,"byteOffset":12,"byteLength":80,"target":34962,"byteStride":20},{"buffer":9,"byteOffset":0,"byteLength":648,"target":34963},{"buffer":9,"byteOffset":648,"byteLength":3660,"target":34962,"byteStride":20}],"buffers":[{"uri":"data:application/octet-stream;base64,","byteLength":14360},{"uri":"data:application/octet-stream;base64,","byteLength":104},{"uri":"data:application/octet-stream;base64,","byteLength":120},{"uri":"data:application/octet-stream;base64,","byteLength":1356},{"uri":"data:application/octet-stream;base64,","byteLength":120},{"uri":"data:application/octet-stream;base64,","byteLength":92},{"uri":"data:application/octet-stream;base64,","byteLength":120},{"uri":"data:application/octet-stream;base64,","byteLength":452},{"uri":"data:application/octet-stream;base64,","byteLength":92},{"uri":"data:application/octet-stream;base64,","byteLength":4308}],"materials":[{"pbrMetallicRoughness":{"baseColorFactor":[1.0,1.0,1.0,1.0],"metallicFactor":0.0,"roughnessFactor":0.5678071905112637},"emissiveFactor":[0.0,0.0,0.0],"alphaMode":"OPAQUE","doubleSided":false,"name":"FrontColor"},{"pbrMetallicRoughness":{"baseColorFactor":[0.4196078431372551,0.556862745098039,0.13725490196078396,1.0],"metallicFactor":0.0,"roughnessFactor":0.5678071905112637},"emissiveFactor":[0.0,0.0,0.0],"alphaMode":"OPAQUE","doubleSided":false,"name":"M_0061_OliveDrab"},{"pbrMetallicRoughness":{"baseColorFactor":[0.509803921568627,0.36862745098039196,0.129411764705882,1.0],"metallicFactor":0.0,"roughnessFactor":0.5678071905112637},"emissiveFactor":[0.0,0.0,0.0],"alphaMode":"OPAQUE","doubleSided":false,"name":"M_0044_DarkGoldenrod"}],"animations":[{"samplers":[{"input":3,"interpolation":"LINEAR","output":4},{"input":5,"interpolation":"LINEAR","output":6},{"input":7,"interpolation":"LINEAR","output":8},{"input":9,"interpolation":"LINEAR","output":10},{"input":11,"interpolation":"LINEAR","output":12},{"input":13,"interpolation":"LINEAR","output":14},{"input":18,"interpolation":"LINEAR","output":19},{"input":20,"interpolation":"LINEAR","output":21},{"input":22,"interpolation":"LINEAR","output":23},{"input":27,"interpolation":"LINEAR","output":28},{"input":29,"interpolation":"LINEAR","output":30},{"input":31,"interpolation":"LINEAR","output":32}],"channels":[{"sampler":0,"target":{"node":0,"path":"translation"}},{"sampler":1,"target":{"node":0,"path":"rotation"}},{"sampler":2,"target":{"node":0,"path":"scale"}},{"sampler":3,"target":{"node":1,"path":"translation"}},{"sampler":4,"target":{"node":1,"path":"rotation"}},{"sampler":5,"target":{"node":1,"path":"scale"}},{"sampler":6,"target":{"node":2,"path":"translation"}},{"sampler":7,"target":{"node":2,"path":"rotation"}},{"sampler":8,"target":{"node":2,"path":"scale"}},{"sampler":9,"target":{"node":3,"path":"translation"}},{"sampler":10,"target":{"node":3,"path":"rotation"}},{"sampler":11,"target":{"node":3,"path":"scale"}}],"duration":3.0}]}