{
	"asset":{
		"version":"2.0",
		"generator":""
	},
	"scenes":[{
		"nodes":[0,
		1,
		2]
	}],
	"nodes":[{
		"name":"Mesh3",
		"mesh":0,
		"rotation":[0.0,
		0.0,
		0.0,
		-1.0],
		"translation":[0.0,
		0.0,
		0.0],
		"scale":[1.0,
		1.0,
		1.0]
	},
	{
		"name":"Mesh1",
		"rotation":[0.0,
		0.0,
		0.0,
		-1.0],
		"translation":[0.0,
		0.0,
		75.5073471069336],
		"scale":[1.0,
		1.0,
		1.0],
		"children":[3,
		4,
		5,
		6]
	},
	{
		"name":"Mesh11",
		"mesh":1,
		"rotation":[0.0,
		0.0,
		0.0,
		-1.0],
		"translation":[-38.560089111328128,
		0.0,
		0.0],
		"scale":[1.0,
		1.0,
		1.0]
	},
	{
		"name":"Mesh1-M_0061_OliveDrab",
		"mesh":2,
		"rotation":[0.0,
		0.0,
		0.0,
		-1.0],
		"translation":[0.0,
		0.0,
		0.0],
		"scale":[1.0,
		1.0,
		1.0]
	},
	{
		"name":"Mesh1-FrontColor",
		"mesh":3
	},
	{
		"name":"Mesh1-M_0044_DarkGoldenrod",
		"mesh":4
	},
	{
		"name":"Mesh1-M_0061_OliveDrab",
		"mesh":5
	}],
	"meshes":[{
		"name":"Mesh3",
		"primitives":[{
			"attributes":{
				"POSITION":1
			},
			"indices":0,
			"material":0
		}]
	},
	{
		"name":"Mesh11",
		"primitives":[{
			"attributes":{
				"POSITION":15
			},
			"indices":14,
			"material":0
		}]
	},
	{
		"name":"Mesh1-M_0061_OliveDrab",
		"primitives":[{
			"attributes":{
				"POSITION":23
			},
			"indices":22,
			"material":1
		}]
	},
	{
		"name":"Mesh1-FrontColor",
		"primitives":[{
			"attributes":{
				"POSITION":31
			},
			"indices":30,
			"material":0
		}]
	},
	{
		"name":"Mesh1-M_0044_DarkGoldenrod",
		"primitives":[{
			"attributes":{
				"POSITION":33
			},
			"indices":32,
			"material":2
		}]
	},
	{
		"name":"Mesh1-M_0061_OliveDrab",
		"primitives":[{
			"attributes":{
				"POSITION":35
			},
			"indices":34,
			"material":1
		}]
	}],
	"accessors":[{
		"bufferView":0,
		"type":"SCALAR",
		"componentType":5123,
		"count":1200,
		"byteOffset":0,
		"min":[0],
		"max":[203]
	},
	{
		"bufferView":1,
		"type":"VEC3",
		"componentType":5126,
		"count":204,
		"byteOffset":0,
		"min":[0.0,
		0.0,
		-40.0],
		"max":[80.0,
		11.0,
		0.0]
	},
	{
		"bufferView":2,
		"type":"SCALAR",
		"componentType":5126,
		"count":2,
		"byteOffset":0,
		"min":[0.0],
		"max":[3.0]
	},
	{
		"bufferView":2,
		"type":"VEC3",
		"componentType":5126,
		"count":2,
		"byteOffset":8,
		"min":[0.0,
		0.0,
		0.0],
		"max":[0.0,
		0.0,
		0.0]
	},
	{
		"bufferView":3,
		"type":"SCALAR",
		"componentType":5126,
		"count":2,
		"byteOffset":0,
		"min":[0.0],
		"max":[3.0]
	},
	{
		"bufferView":3,
		"type":"VEC4",
		"componentType":5126,
		"count":2,
		"byteOffset":8,
		"min":[0.0,
		0.0,
		0.0,
		-1.0],
		"max":[0.0,
		0.0,
		0.0,
		-1.0]
	},
	{
		"bufferView":4,
		"type":"SCALAR",
		"componentType":5126,
		"count":2,
		"byteOffset":0,
		"min":[0.0],
		"max":[3.0]
	},
	{
		"bufferView":4,
		"type":"VEC3",
		"componentType":5126,
		"count":2,
		"byteOffset":8,
		"min":[1.0,
		1.0,
		1.0],
		"max":[1.0,
		1.0,
		1.0]
	},
	{
		"bufferView":5,
		"type":"SCALAR",
		"componentType":5126,
		"count":3,
		"byteOffset":0,
		"min":[0.0],
		"max":[3.0]
	},
	{
		"bufferView":5,
		"type":"VEC3",
		"componentType":5126,
		"count":3,
		"byteOffset":12,
		"min":[0.0,
		0.0,
		0.0],
		"max":[0.0,
		0.0,
		75.5073471069336]
	},
	{
		"bufferView":6,
		"type":"SCALAR",
		"componentType":5126,
		"count":2,
		"byteOffset":0,
		"min":[0.0],
		"max":[3.0]
	},
	{
		"bufferView":6,
		"type":"VEC4",
		"componentType":5126,
		"count":2,
		"byteOffset":8,
		"min":[0.0,
		0.0,
		0.0,
		-1.0],
		"max":[0.0,
		0.0,
		0.0,
		-1.0]
	},
	{
		"bufferView":7,
		"type":"SCALAR",
		"componentType":5126,
		"count":2,
		"byteOffset":0,
		"min":[0.0],
		"max":[3.0]
	},
	{
		"bufferView":7,
		"type":"VEC3",
		"componentType":5126,
		"count":2,
		"byteOffset":8,
		"min":[1.0,
		1.0,
		1.0],
		"max":[1.0,
		1.0,
		1.0]
	},
	{
		"bufferView":8,
		"type":"SCALAR",
		"componentType":5123,
		"count":108,
		"byteOffset":0,
		"min":[0],
		"max":[19]
	},
	{
		"bufferView":9,
		"type":"VEC3",
		"componentType":5126,
		"count":20,
		"byteOffset":0,
		"min":[0.0,
		1.0,
		-40.0],
		"max":[28.0,
		51.0,
		0.0]
	},
	{
		"bufferView":10,
		"type":"SCALAR",
		"componentType":5126,
		"count":3,
		"byteOffset":0,
		"min":[0.0],
		"max":[3.0]
	},
	{
		"bufferView":10,
		"type":"VEC3",
		"componentType":5126,
		"count":3,
		"byteOffset":12,
		"min":[-38.560089111328128,
		0.0,
		0.0],
		"max":[0.0,
		0.0,
		0.0]
	},
	{
		"bufferView":11,
		"type":"SCALAR",
		"componentType":5126,
		"count":2,
		"byteOffset":0,
		"min":[0.0],
		"max":[3.0]
	},
	{
		"bufferView":11,
		"type":"VEC4",
		"componentType":5126,
		"count":2,
		"byteOffset":8,
		"min":[0.0,
		0.0,
		0.0,
		-1.0],
		"max":[0.0,
		0.0,
		0.0,
		-1.0]
	},
	{
		"bufferView":12,
		"type":"SCALAR",
		"componentType":5126,
		"count":2,
		"byteOffset":0,
		"min":[0.0],
		"max":[3.0]
	},
	{
		"bufferView":12,
		"type":"VEC3",
		"componentType":5126,
		"count":2,
		"byteOffset":8,
		"min":[1.0,
		1.0,
		1.0],
		"max":[1.0,
		1.0,
		1.0]
	},
	{
		"bufferView":13,
		"type":"SCALAR",
		"componentType":5123,
		"count":6,
		"byteOffset":0,
		"min":[0],
		"max":[3]
	},
	{
		"bufferView":14,
		"type":"VEC3",
		"componentType":5126,
		"count":4,
		"byteOffset":0,
		"min":[55.0,
		1.5,
		-31.0],
		"max":[80.0,
		1.5,
		0.0]
	},
	{
		"bufferView":15,
		"type":"SCALAR",
		"componentType":5126,
		"count":3,
		"byteOffset":0,
		"min":[0.0],
		"max":[3.0]
	},
	{
		"bufferView":15,
		"type":"VEC3",
		"componentType":5126,
		"count":3,
		"byteOffset":12,
		"min":[0.0,
		0.0,
		0.0],
		"max":[0.0,
		0.0,
		75.5073471069336]
	},
	{
		"bufferView":16,
		"type":"SCALAR",
		"componentType":5126,
		"count":2,
		"byteOffset":0,
		"min":[0.0],
		"max":[3.0]
	},
	{
		"bufferView":16,
		"type":"VEC4",
		"componentType":5126,
		"count":2,
		"byteOffset":8,
		"min":[0.0,
		0.0,
		0.0,
		-1.0],
		"max":[0.0,
		0.0,
		0.0,
		-1.0]
	},
	{
		"bufferView":17,
		"type":"SCALAR",
		"componentType":5126,
		"count":2,
		"byteOffset":0,
		"min":[0.0],
		"max":[3.0]
	},
	{
		"bufferView":17,
		"type":"VEC3",
		"componentType":5126,
		"count":2,
		"byteOffset":8,
		"min":[1.0,
		1.0,
		1.0],
		"max":[1.0,
		1.0,
		1.0]
	},
	{
		"bufferView":18,
		"type":"SCALAR",
		"componentType":5123,
		"count":36,
		"byteOffset":0,
		"min":[0],
		"max":[9]
	},
	{
		"bufferView":19,
		"type":"VEC3",
		"componentType":5126,
		"count":10,
		"byteOffset":0,
		"min":[55.0,
		1.0,
		-40.0],
		"max":[80.0,
		1.5,
		0.0]
	},
	{
		"bufferView":20,
		"type":"SCALAR",
		"componentType":5123,
		"count":6,
		"byteOffset":0,
		"min":[0],
		"max":[3]
	},
	{
		"bufferView":21,
		"type":"VEC3",
		"componentType":5126,
		"count":4,
		"byteOffset":0,
		"min":[55.0,
		1.5,
		-40.0],
		"max":[80.0,
		1.5,
		-31.0]
	},
	{
		"bufferView":22,
		"type":"SCALAR",
		"componentType":5123,
		"count":324,
		"byteOffset":0,
		"min":[0],
		"max":[64]
	},
	{
		"bufferView":23,
		"type":"VEC3",
		"componentType":5126,
		"count":65,
		"byteOffset":0,
		"min":[11.0,
		1.0,
		-40.0],
		"max":[22.0,
		51.0,
		-10.0]
	}],
	"bufferViews":[{
		"buffer":0,
		"byteOffset":0,
		"byteLength":2400,
		"target":34963
	},
	{
		"buffer":0,
		"byteOffset":2400,
		"byteLength":2448,
		"target":34962
	},
	{
		"buffer":1,
		"byteOffset":0,
		"byteLength":32
	},
	{
		"buffer":1,
		"byteOffset":32,
		"byteLength":40
	},
	{
		"buffer":1,
		"byteOffset":72,
		"byteLength":32
	},
	{
		"buffer":2,
		"byteOffset":0,
		"byteLength":48
	},
	{
		"buffer":2,
		"byteOffset":48,
		"byteLength":40
	},
	{
		"buffer":2,
		"byteOffset":88,
		"byteLength":32
	},
	{
		"buffer":3,
		"byteOffset":0,
		"byteLength":216,
		"target":34963
	},
	{
		"buffer":3,
		"byteOffset":216,
		"byteLength":240,
		"target":34962
	},
	{
		"buffer":4,
		"byteOffset":0,
		"byteLength":48
	},
	{
		"buffer":4,
		"byteOffset":48,
		"byteLength":40
	},
	{
		"buffer":4,
		"byteOffset":88,
		"byteLength":32
	},
	{
		"buffer":5,
		"byteOffset":0,
		"byteLength":12,
		"target":34963
	},
	{
		"buffer":5,
		"byteOffset":12,
		"byteLength":48,
		"target":34962
	},
	{
		"buffer":6,
		"byteOffset":0,
		"byteLength":48
	},
	{
		"buffer":6,
		"byteOffset":48,
		"byteLength":40
	},
	{
		"buffer":6,
		"byteOffset":88,
		"byteLength":32
	},
	{
		"buffer":7,
		"byteOffset":0,
		"byteLength":72,
		"target":34963
	},
	{
		"buffer":7,
		"byteOffset":72,
		"byteLength":120,
		"target":34962
	},
	{
		"buffer":8,
		"byteOffset":0,
		"byteLength":12,
		"target":34963
	},
	{
		"buffer":8,
		"byteOffset":12,
		"byteLength":48,
		"target":34962
	},
	{
		"buffer":9,
		"byteOffset":0,
		"byteLength":648,
		"target":34963
	},
	{
		"buffer":9,
		"byteOffset":648,
		"byteLength":780,
		"target":34962
	}],
	"buffers":[{
		"uri":"data:application/octet-stream;base64,",
		"byteLength":4848
	},
	{
		"uri":"data:application/octet-stream;base64,",
		"byteLength":104
	},
	{
		"uri":"data:application/octet-stream;base64,",
		"byteLength":120
	},
	{
		"uri":"data:application/octet-stream;base64,",
		"byteLength":456
	},
	{
		"uri":"data:application/octet-stream;base64,",
		"byteLength":120
	},
	{
		"uri":"data:application/octet-stream;base64,",
		"byteLength":60
	},
	{
		"uri":"data:application/octet-stream;base64,",
		"byteLength":120
	},
	{
		"uri":"data:application/octet-stream;base64,",
		"byteLength":192
	},
	{
		"uri":"data:application/octet-stream;base64,",
		"byteLength":60
	},
	{
		"uri":"data:application/octet-stream;base64,",
		"byteLength":1428
	}],
	"materials":[{
		"pbrMetallicRoughness":{
			"baseColorFactor":[1.0,
			1.0,
			1.0,
			1.0],
			"metallicFactor":0.0,
			"roughnessFactor":0.5678071905112637
		},
		"emissiveFactor":[0.0,
		0.0,
		0.0],
		"alphaMode":"OPAQUE",
		"doubleSided":false,
		"name":"FrontColor"
	},
	{
		"pbrMetallicRoughness":{
			"baseColorFactor":[0.4196078431372551,
			0.556862745098039,
			0.13725490196078397,
			1.0],
			"metallicFactor":0.0,
			"roughnessFactor":0.5678071905112637
		},
		"emissiveFactor":[0.0,
		0.0,
		0.0],
		"alphaMode":"OPAQUE",
		"doubleSided":false,
		"name":"M_0061_OliveDrab"
	},
	{
		"pbrMetallicRoughness":{
			"baseColorFactor":[0.509803921568627,
			0.36862745098039198,
			0.129411764705882,
			1.0],
			"metallicFactor":0.0,
			"roughnessFactor":0.5678071905112637
		},
		"emissiveFactor":[0.0,
		0.0,
		0.0],
		"alphaMode":"OPAQUE",
		"doubleSided":false,
		"name":"M_0044_DarkGoldenrod"
	}],
	"animations":[{
		"samplers":[{
			"input":2,
			"interpolation":"LINEAR",
			"output":3
		},
		{
			"input":4,
			"interpolation":"LINEAR",
			"output":5
		},
		{
			"input":6,
			"interpolation":"LINEAR",
			"output":7
		},
		{
			"input":8,
			"interpolation":"LINEAR",
			"output":9
		},
		{
			"input":10,
			"interpolation":"LINEAR",
			"output":11
		},
		{
			"input":12,
			"interpolation":"LINEAR",
			"output":13
		},
		{
			"input":16,
			"interpolation":"LINEAR",
			"output":17
		},
		{
			"input":18,
			"interpolation":"LINEAR",
			"output":19
		},
		{
			"input":20,
			"interpolation":"LINEAR",
			"output":21
		},
		{
			"input":24,
			"interpolation":"LINEAR",
			"output":25
		},
		{
			"input":26,
			"interpolation":"LINEAR",
			"output":27
		},
		{
			"input":28,
			"interpolation":"LINEAR",
			"output":29
		}],
		"channels":[{
			"target":{
				"node":0,
				"path":"translation"
			},
			"sampler":0
		},
		{
			"target":{
				"node":0,
				"path":"rotation"
			},
			"sampler":1
		},
		{
			"target":{
				"node":0,
				"path":"scale"
			},
			"sampler":2
		},
		{
			"target":{
				"node":1,
				"path":"translation"
			},
			"sampler":3
		},
		{
			"target":{
				"node":1,
				"path":"rotation"
			},
			"sampler":4
		},
		{
			"target":{
				"node":1,
				"path":"scale"
			},
			"sampler":5
		},
		{
			"target":{
				"node":2,
				"path":"translation"
			},
			"sampler":6
		},
		{
			"target":{
				"node":2,
				"path":"rotation"
			},
			"sampler":7
		},
		{
			"target":{
				"node":2,
				"path":"scale"
			},
			"sampler":8
		},
		{
			"target":{
				"node":3,
				"path":"translation"
			},
			"sampler":9
		},
		{
			"target":{
				"node":3,
				"path":"rotation"
			},
			"sampler":10
		},
		{
			"target":{
				"node":3,
				"path":"scale"
			},
			"sampler":11
		}]
	}]
}