{
	"asset":{
		"version":"2.0",
		"generator":""
	},
	"scenes":[{
		"nodes":[0,
		1]
	}],
	"nodes":[{
		"name":"dizuo",
		"mesh":0
	},
	{
		"name":"Model",
		"children":[2,
		3,
		4,
		5,
		6]
	},
	{
		"name":"Group1",
		"children":[7,
		8,
		9,
		10]
	},
	{
		"name":"Group2",
		"children":[11,
		12,
		13,
		14,
		15]
	},
	{
		"name":"Group3",
		"children":[16,
		17,
		18,
		19]
	},
	{
		"name":"Group4",
		"children":[20,
		21,
		22,
		23]
	},
	{
		"name":"gongxiang",
		"children":[24,
		25,
		26]
	},
	{
		"name":"Group1-Color1",
		"mesh":1
	},
	{
		"name":"Group1-Color3",
		"mesh":2
	},
	{
		"name":"Group1-Color2",
		"mesh":3
	},
	{
		"name":"Group1-Color1",
		"mesh":4
	},
	{
		"name":"Group2-Color2",
		"mesh":5
	},
	{
		"name":"Group2-Color1",
		"mesh":6
	},
	{
		"name":"Group2-Color2",
		"mesh":7
	},
	{
		"name":"Group2-Color1",
		"mesh":8
	},
	{
		"name":"Group2-Color2",
		"mesh":9
	},
	{
		"name":"Group3-Color1",
		"mesh":10
	},
	{
		"name":"Group3-Color3",
		"mesh":11
	},
	{
		"name":"Group3-Color1",
		"mesh":12
	},
	{
		"name":"Group3-Color2",
		"mesh":13
	},
	{
		"name":"Group4-Color1",
		"mesh":14
	},
	{
		"name":"Group4-Color3",
		"mesh":15
	},
	{
		"name":"Group4-Color1",
		"mesh":16
	},
	{
		"name":"Group4-Color2",
		"mesh":17
	},
	{
		"name":"gongxiang-Color1",
		"mesh":18
	},
	{
		"name":"gongxiang-Color1",
		"mesh":19
	},
	{
		"name":"gongxiang-Color3",
		"mesh":20
	}],
	"meshes":[{
		"name":"dizuo",
		"primitives":[{
			"attributes":{
				"POSITION":1,
				"TEXCOORD_0":2
			},
			"indices":0,
			"material":0
		}]
	},
	{
		"name":"Group1-Color1",
		"primitives":[{
			"attributes":{
				"POSITION":4,
				"TEXCOORD_0":5
			},
			"indices":3,
			"material":1
		}]
	},
	{
		"name":"Group1-Color3",
		"primitives":[{
			"attributes":{
				"POSITION":7,
				"TEXCOORD_0":8
			},
			"indices":6,
			"material":2
		}]
	},
	{
		"name":"Group1-Color2",
		"primitives":[{
			"attributes":{
				"POSITION":10,
				"TEXCOORD_0":11
			},
			"indices":9,
			"material":0
		}]
	},
	{
		"name":"Group1-Color1",
		"primitives":[{
			"attributes":{
				"POSITION":13,
				"TEXCOORD_0":14
			},
			"indices":12,
			"material":1
		}]
	},
	{
		"name":"Group2-Color2",
		"primitives":[{
			"attributes":{
				"POSITION":16,
				"TEXCOORD_0":17
			},
			"indices":15,
			"material":0
		}]
	},
	{
		"name":"Group2-Color1",
		"primitives":[{
			"attributes":{
				"POSITION":19,
				"TEXCOORD_0":20
			},
			"indices":18,
			"material":1
		}]
	},
	{
		"name":"Group2-Color2",
		"primitives":[{
			"attributes":{
				"POSITION":22,
				"TEXCOORD_0":23
			},
			"indices":21,
			"material":0
		}]
	},
	{
		"name":"Group2-Color1",
		"primitives":[{
			"attributes":{
				"POSITION":25,
				"TEXCOORD_0":26
			},
			"indices":24,
			"material":1
		}]
	},
	{
		"name":"Group2-Color2",
		"primitives":[{
			"attributes":{
				"POSITION":28,
				"TEXCOORD_0":29
			},
			"indices":27,
			"material":0
		}]
	},
	{
		"name":"Group3-Color1",
		"primitives":[{
			"attributes":{
				"POSITION":31,
				"TEXCOORD_0":32
			},
			"indices":30,
			"material":1
		}]
	},
	{
		"name":"Group3-Color3",
		"primitives":[{
			"attributes":{
				"POSITION":34,
				"TEXCOORD_0":35
			},
			"indices":33,
			"material":2
		}]
	},
	{
		"name":"Group3-Color1",
		"primitives":[{
			"attributes":{
				"POSITION":37,
				"TEXCOORD_0":38
			},
			"indices":36,
			"material":1
		}]
	},
	{
		"name":"Group3-Color2",
		"primitives":[{
			"attributes":{
				"POSITION":40,
				"TEXCOORD_0":41
			},
			"indices":39,
			"material":0
		}]
	},
	{
		"name":"Group4-Color1",
		"primitives":[{
			"attributes":{
				"POSITION":43,
				"TEXCOORD_0":44
			},
			"indices":42,
			"material":1
		}]
	},
	{
		"name":"Group4-Color3",
		"primitives":[{
			"attributes":{
				"POSITION":46,
				"TEXCOORD_0":47
			},
			"indices":45,
			"material":2
		}]
	},
	{
		"name":"Group4-Color1",
		"primitives":[{
			"attributes":{
				"POSITION":49,
				"TEXCOORD_0":50
			},
			"indices":48,
			"material":1
		}]
	},
	{
		"name":"Group4-Color2",
		"primitives":[{
			"attributes":{
				"POSITION":52,
				"TEXCOORD_0":53
			},
			"indices":51,
			"material":0
		}]
	},
	{
		"name":"gongxiang-Color1",
		"primitives":[{
			"attributes":{
				"POSITION":55,
				"TEXCOORD_0":56
			},
			"indices":54,
			"material":1
		}]
	},
	{
		"name":"gongxiang-Color1",
		"primitives":[{
			"attributes":{
				"POSITION":58,
				"TEXCOORD_0":59
			},
			"indices":57,
			"material":1
		}]
	},
	{
		"name":"gongxiang-Color3",
		"primitives":[{
			"attributes":{
				"POSITION":61,
				"TEXCOORD_0":62
			},
			"indices":60,
			"material":2
		}]
	}],
	"accessors":[{
		"bufferView":0,
		"type":"SCALAR",
		"componentType":5123,
		"count":36,
		"byteOffset":0,
		"min":[0],
		"max":[20]
	},
	{
		"bufferView":1,
		"type":"VEC3",
		"componentType":5126,
		"count":21,
		"byteOffset":0,
		"min":[-309.2731628417969,
		0.0,
		-249.1808624267578],
		"max":[270.3768615722656,
		4.0,
		-30.5108642578125]
	},
	{
		"bufferView":1,
		"type":"VEC2",
		"componentType":5126,
		"count":21,
		"byteOffset":12,
		"min":[-2282.086669921875,
		-859.905517578125],
		"max":[2282.086669921875,
		1.0]
	},
	{
		"bufferView":2,
		"type":"SCALAR",
		"componentType":5123,
		"count":1248,
		"byteOffset":0,
		"min":[0],
		"max":[669]
	},
	{
		"bufferView":3,
		"type":"VEC3",
		"componentType":5126,
		"count":670,
		"byteOffset":0,
		"min":[-251.4652557373047,
		97.85140228271485,
		-232.99473571777345],
		"max":[-134.50689697265626,
		140.28475952148438,
		-83.31311798095703]
	},
	{
		"bufferView":3,
		"type":"VEC2",
		"componentType":5126,
		"count":670,
		"byteOffset":12,
		"min":[-111.67603302001953,
		-47.03154754638672],
		"max":[111.67603302001953,
		1.0000009536743165]
	},
	{
		"bufferView":4,
		"type":"SCALAR",
		"componentType":5123,
		"count":240,
		"byteOffset":0,
		"min":[0],
		"max":[95]
	},
	{
		"bufferView":5,
		"type":"VEC3",
		"componentType":5126,
		"count":96,
		"byteOffset":0,
		"min":[-233.11306762695313,
		101.31768798828125,
		-219.74053955078126],
		"max":[-145.52757263183595,
		121.86161804199219,
		-98.4677963256836]
	},
	{
		"bufferView":5,
		"type":"VEC2",
		"componentType":5126,
		"count":96,
		"byteOffset":12,
		"min":[-52.12873840332031,
		-30.15740203857422],
		"max":[52.12873840332031,
		1.0]
	},
	{
		"bufferView":6,
		"type":"SCALAR",
		"componentType":5123,
		"count":3045,
		"byteOffset":0,
		"min":[0],
		"max":[1465]
	},
	{
		"bufferView":7,
		"type":"VEC3",
		"componentType":5126,
		"count":1466,
		"byteOffset":0,
		"min":[-273.7996520996094,
		3.9561712741851808,
		-209.78085327148438],
		"max":[-143.76084899902345,
		105.03731536865235,
		-71.31098937988281]
	},
	{
		"bufferView":7,
		"type":"VEC2",
		"componentType":5126,
		"count":1466,
		"byteOffset":12,
		"min":[-137.47427368164063,
		-145.02362060546876],
		"max":[137.47427368164063,
		82.760009765625]
	},
	{
		"bufferView":8,
		"type":"SCALAR",
		"componentType":5123,
		"count":72,
		"byteOffset":0,
		"min":[0],
		"max":[42]
	},
	{
		"bufferView":9,
		"type":"VEC3",
		"componentType":5126,
		"count":43,
		"byteOffset":0,
		"min":[-168.09669494628907,
		3.9561712741851808,
		-110.6101303100586],
		"max":[-140.7506103515625,
		116.38450622558594,
		-92.89966583251953]
	},
	{
		"bufferView":9,
		"type":"VEC2",
		"componentType":5126,
		"count":43,
		"byteOffset":12,
		"min":[-5.433169364929199,
		-441.623779296875],
		"max":[5.433169364929199,
		3.486313819885254]
	},
	{
		"bufferView":10,
		"type":"SCALAR",
		"componentType":5123,
		"count":612,
		"byteOffset":0,
		"min":[0],
		"max":[302]
	},
	{
		"bufferView":11,
		"type":"VEC3",
		"componentType":5126,
		"count":303,
		"byteOffset":0,
		"min":[-221.1484375,
		6.0,
		-209.75953674316407],
		"max":[-29.692808151245118,
		43.806678771972659,
		-62.670658111572269]
	},
	{
		"bufferView":11,
		"type":"VEC2",
		"componentType":5126,
		"count":303,
		"byteOffset":12,
		"min":[-72.48503875732422,
		-67.54594421386719],
		"max":[72.48503875732422,
		24.669628143310548]
	},
	{
		"bufferView":12,
		"type":"SCALAR",
		"componentType":5123,
		"count":588,
		"byteOffset":0,
		"min":[0],
		"max":[298]
	},
	{
		"bufferView":13,
		"type":"VEC3",
		"componentType":5126,
		"count":299,
		"byteOffset":0,
		"min":[-79.57292938232422,
		29.52427864074707,
		-79.00760650634766],
		"max":[-25.9099178314209,
		54.85345458984375,
		-49.65555191040039]
	},
	{
		"bufferView":13,
		"type":"VEC2",
		"componentType":5126,
		"count":299,
		"byteOffset":12,
		"min":[-77.77352905273438,
		-37.661415100097659],
		"max":[77.77352905273438,
		1.0]
	},
	{
		"bufferView":14,
		"type":"SCALAR",
		"componentType":5123,
		"count":24,
		"byteOffset":0,
		"min":[0],
		"max":[13]
	},
	{
		"bufferView":15,
		"type":"VEC3",
		"componentType":5126,
		"count":14,
		"byteOffset":0,
		"min":[-221.1484375,
		6.0,
		-202.02609252929688],
		"max":[-204.06103515625,
		15.156171798706055,
		-139.7487335205078]
	},
	{
		"bufferView":15,
		"type":"VEC2",
		"componentType":5126,
		"count":14,
		"byteOffset":12,
		"min":[-21.899974822998048,
		-57.35975646972656],
		"max":[17.08687973022461,
		24.669628143310548]
	},
	{
		"bufferView":16,
		"type":"SCALAR",
		"componentType":5123,
		"count":780,
		"byteOffset":0,
		"min":[0],
		"max":[423]
	},
	{
		"bufferView":17,
		"type":"VEC3",
		"componentType":5126,
		"count":424,
		"byteOffset":0,
		"min":[-139.7084197998047,
		4.0,
		-207.72305297851563],
		"max":[-35.390174865722659,
		130.76425170898438,
		-55.44573211669922]
	},
	{
		"bufferView":17,
		"type":"VEC2",
		"componentType":5126,
		"count":424,
		"byteOffset":12,
		"min":[-96.59891510009766,
		-164.549560546875],
		"max":[96.59891510009766,
		72.93624877929688]
	},
	{
		"bufferView":18,
		"type":"SCALAR",
		"componentType":5123,
		"count":2493,
		"byteOffset":0,
		"min":[0],
		"max":[1257]
	},
	{
		"bufferView":19,
		"type":"VEC3",
		"componentType":5126,
		"count":1258,
		"byteOffset":0,
		"min":[-245.0004119873047,
		3.9333133697509767,
		-230.6377716064453],
		"max":[-23.684823989868165,
		71.00665283203125,
		-51.663204193115237]
	},
	{
		"bufferView":19,
		"type":"VEC2",
		"componentType":5126,
		"count":1258,
		"byteOffset":12,
		"min":[-186.03367614746095,
		-179.22561645507813],
		"max":[186.03367614746095,
		108.16162109375]
	},
	{
		"bufferView":20,
		"type":"SCALAR",
		"componentType":5123,
		"count":1212,
		"byteOffset":0,
		"min":[0],
		"max":[633]
	},
	{
		"bufferView":21,
		"type":"VEC3",
		"componentType":5126,
		"count":634,
		"byteOffset":0,
		"min":[-31.97378921508789,
		108.21630859375,
		-209.98410034179688],
		"max":[96.41938781738281,
		158.2227020263672,
		-64.73081970214844]
	},
	{
		"bufferView":21,
		"type":"VEC2",
		"componentType":5126,
		"count":634,
		"byteOffset":12,
		"min":[-111.67603302001953,
		-47.03154754638672],
		"max":[111.67603302001953,
		1.0000009536743165]
	},
	{
		"bufferView":22,
		"type":"SCALAR",
		"componentType":5123,
		"count":204,
		"byteOffset":0,
		"min":[0],
		"max":[83]
	},
	{
		"bufferView":23,
		"type":"VEC3",
		"componentType":5126,
		"count":84,
		"byteOffset":0,
		"min":[-12.97744369506836,
		109.29450225830078,
		-190.45079040527345],
		"max":[61.517921447753909,
		129.87979125976563,
		-77.38755798339844]
	},
	{
		"bufferView":23,
		"type":"VEC2",
		"componentType":5126,
		"count":84,
		"byteOffset":12,
		"min":[-72.48503875732422,
		-30.15740203857422],
		"max":[72.48503875732422,
		1.0]
	},
	{
		"bufferView":24,
		"type":"SCALAR",
		"componentType":5123,
		"count":696,
		"byteOffset":0,
		"min":[0],
		"max":[367]
	},
	{
		"bufferView":25,
		"type":"VEC3",
		"componentType":5126,
		"count":368,
		"byteOffset":0,
		"min":[-67.51717376708985,
		4.0,
		-203.16372680664063],
		"max":[43.2582893371582,
		132.526123046875,
		-100.28085327148438]
	},
	{
		"bufferView":25,
		"type":"VEC2",
		"componentType":5126,
		"count":368,
		"byteOffset":12,
		"min":[-117.22208404541016,
		-168.28970336914063],
		"max":[117.22208404541016,
		1.0]
	},
	{
		"bufferView":26,
		"type":"SCALAR",
		"componentType":5123,
		"count":2658,
		"byteOffset":0,
		"min":[0],
		"max":[1407]
	},
	{
		"bufferView":27,
		"type":"VEC3",
		"componentType":5126,
		"count":1408,
		"byteOffset":0,
		"min":[-96.6013412475586,
		4.0,
		-218.23011779785157],
		"max":[77.00717163085938,
		82.01310729980469,
		-50.24613571166992]
	},
	{
		"bufferView":27,
		"type":"VEC2",
		"componentType":5126,
		"count":1408,
		"byteOffset":12,
		"min":[-185.10667419433595,
		-168.83270263671876],
		"max":[185.10667419433595,
		50.662017822265628]
	},
	{
		"bufferView":28,
		"type":"SCALAR",
		"componentType":5123,
		"count":72,
		"byteOffset":0,
		"min":[0],
		"max":[42]
	},
	{
		"bufferView":29,
		"type":"VEC3",
		"componentType":5126,
		"count":43,
		"byteOffset":0,
		"min":[164.5692901611328,
		4.0,
		-149.40771484375],
		"max":[175.34278869628907,
		114.01136779785156,
		-134.35504150390626]
	},
	{
		"bufferView":29,
		"type":"VEC2",
		"componentType":5126,
		"count":43,
		"byteOffset":12,
		"min":[-1.8110235929489136,
		-141.816162109375],
		"max":[1.8110235929489136,
		12.417322158813477]
	},
	{
		"bufferView":30,
		"type":"SCALAR",
		"componentType":5123,
		"count":84,
		"byteOffset":0,
		"min":[0],
		"max":[35]
	},
	{
		"bufferView":31,
		"type":"VEC3",
		"componentType":5126,
		"count":36,
		"byteOffset":0,
		"min":[195.6273651123047,
		103.62621307373047,
		-144.58676147460938],
		"max":[215.84756469726563,
		107.50413513183594,
		-130.9281768798828]
	},
	{
		"bufferView":31,
		"type":"VEC2",
		"componentType":5126,
		"count":36,
		"byteOffset":12,
		"min":[-72.48503875732422,
		-20.518409729003908],
		"max":[72.48503875732422,
		0.4014599919319153]
	},
	{
		"bufferView":32,
		"type":"SCALAR",
		"componentType":5123,
		"count":588,
		"byteOffset":0,
		"min":[0],
		"max":[298]
	},
	{
		"bufferView":33,
		"type":"VEC3",
		"componentType":5126,
		"count":299,
		"byteOffset":0,
		"min":[142.09791564941407,
		101.5126953125,
		-159.3377685546875],
		"max":[222.52435302734376,
		126.99744415283203,
		-113.26182556152344]
	},
	{
		"bufferView":33,
		"type":"VEC2",
		"componentType":5126,
		"count":299,
		"byteOffset":12,
		"min":[-77.77352905273438,
		-37.661415100097659],
		"max":[77.77352905273438,
		1.0]
	},
	{
		"bufferView":34,
		"type":"SCALAR",
		"componentType":5123,
		"count":5388,
		"byteOffset":0,
		"min":[0],
		"max":[2607]
	},
	{
		"bufferView":35,
		"type":"VEC3",
		"componentType":5126,
		"count":2608,
		"byteOffset":0,
		"min":[75.71803283691406,
		4.0,
		-204.89956665039063],
		"max":[229.67593383789063,
		108.44290924072266,
		-91.75615692138672]
	},
	{
		"bufferView":35,
		"type":"VEC2",
		"componentType":5126,
		"count":2608,
		"byteOffset":12,
		"min":[-804.0187377929688,
		-489.10430908203127],
		"max":[804.0187377929688,
		67.17929077148438]
	},
	{
		"bufferView":36,
		"type":"SCALAR",
		"componentType":5123,
		"count":36,
		"byteOffset":0,
		"min":[0],
		"max":[20]
	},
	{
		"bufferView":37,
		"type":"VEC3",
		"componentType":5126,
		"count":21,
		"byteOffset":0,
		"min":[119.28972625732422,
		9.860184669494629,
		-145.27821350097657],
		"max":[120.6646728515625,
		120.93049621582031,
		-143.90325927734376]
	},
	{
		"bufferView":37,
		"type":"VEC2",
		"componentType":5126,
		"count":21,
		"byteOffset":12,
		"min":[-1.8110235929489136,
		-145.29757690429688],
		"max":[1.8110235929489136,
		1.0]
	},
	{
		"bufferView":38,
		"type":"SCALAR",
		"componentType":5123,
		"count":624,
		"byteOffset":0,
		"min":[0],
		"max":[334]
	},
	{
		"bufferView":39,
		"type":"VEC3",
		"componentType":5126,
		"count":335,
		"byteOffset":0,
		"min":[50.5202522277832,
		116.1143569946289,
		-164.59542846679688],
		"max":[162.80169677734376,
		148.20729064941407,
		-90.9468765258789]
	},
	{
		"bufferView":39,
		"type":"VEC2",
		"componentType":5126,
		"count":335,
		"byteOffset":12,
		"min":[-111.67603302001953,
		-47.03154754638672],
		"max":[111.67603302001953,
		1.0000009536743165]
	},
	{
		"bufferView":40,
		"type":"SCALAR",
		"componentType":5123,
		"count":120,
		"byteOffset":0,
		"min":[0],
		"max":[47]
	},
	{
		"bufferView":41,
		"type":"VEC3",
		"componentType":5126,
		"count":48,
		"byteOffset":0,
		"min":[106.14816284179688,
		118.10677337646485,
		-145.06597900390626],
		"max":[148.13108825683595,
		125.48535919189453,
		-113.37818908691406]
	},
	{
		"bufferView":41,
		"type":"VEC2",
		"componentType":5126,
		"count":48,
		"byteOffset":12,
		"min":[-52.12873840332031,
		-30.15740203857422],
		"max":[52.12873840332031,
		1.0]
	}],
	"bufferViews":[{
		"buffer":0,
		"byteOffset":0,
		"byteLength":72,
		"target":34963
	},
	{
		"buffer":0,
		"byteOffset":72,
		"byteLength":420,
		"target":34962,
		"byteStride":20
	},
	{
		"buffer":1,
		"byteOffset":0,
		"byteLength":2496,
		"target":34963
	},
	{
		"buffer":1,
		"byteOffset":2496,
		"byteLength":13400,
		"target":34962,
		"byteStride":20
	},
	{
		"buffer":2,
		"byteOffset":0,
		"byteLength":480,
		"target":34963
	},
	{
		"buffer":2,
		"byteOffset":480,
		"byteLength":1920,
		"target":34962,
		"byteStride":20
	},
	{
		"buffer":3,
		"byteOffset":0,
		"byteLength":6090,
		"target":34963
	},
	{
		"buffer":3,
		"byteOffset":6092,
		"byteLength":29320,
		"target":34962,
		"byteStride":20
	},
	{
		"buffer":4,
		"byteOffset":0,
		"byteLength":144,
		"target":34963
	},
	{
		"buffer":4,
		"byteOffset":144,
		"byteLength":860,
		"target":34962,
		"byteStride":20
	},
	{
		"buffer":5,
		"byteOffset":0,
		"byteLength":1224,
		"target":34963
	},
	{
		"buffer":5,
		"byteOffset":1224,
		"byteLength":6060,
		"target":34962,
		"byteStride":20
	},
	{
		"buffer":6,
		"byteOffset":0,
		"byteLength":1176,
		"target":34963
	},
	{
		"buffer":6,
		"byteOffset":1176,
		"byteLength":5980,
		"target":34962,
		"byteStride":20
	},
	{
		"buffer":7,
		"byteOffset":0,
		"byteLength":48,
		"target":34963
	},
	{
		"buffer":7,
		"byteOffset":48,
		"byteLength":280,
		"target":34962,
		"byteStride":20
	},
	{
		"buffer":8,
		"byteOffset":0,
		"byteLength":1560,
		"target":34963
	},
	{
		"buffer":8,
		"byteOffset":1560,
		"byteLength":8480,
		"target":34962,
		"byteStride":20
	},
	{
		"buffer":9,
		"byteOffset":0,
		"byteLength":4986,
		"target":34963
	},
	{
		"buffer":9,
		"byteOffset":4988,
		"byteLength":25160,
		"target":34962,
		"byteStride":20
	},
	{
		"buffer":10,
		"byteOffset":0,
		"byteLength":2424,
		"target":34963
	},
	{
		"buffer":10,
		"byteOffset":2424,
		"byteLength":12680,
		"target":34962,
		"byteStride":20
	},
	{
		"buffer":11,
		"byteOffset":0,
		"byteLength":408,
		"target":34963
	},
	{
		"buffer":11,
		"byteOffset":408,
		"byteLength":1680,
		"target":34962,
		"byteStride":20
	},
	{
		"buffer":12,
		"byteOffset":0,
		"byteLength":1392,
		"target":34963
	},
	{
		"buffer":12,
		"byteOffset":1392,
		"byteLength":7360,
		"target":34962,
		"byteStride":20
	},
	{
		"buffer":13,
		"byteOffset":0,
		"byteLength":5316,
		"target":34963
	},
	{
		"buffer":13,
		"byteOffset":5316,
		"byteLength":28160,
		"target":34962,
		"byteStride":20
	},
	{
		"buffer":14,
		"byteOffset":0,
		"byteLength":144,
		"target":34963
	},
	{
		"buffer":14,
		"byteOffset":144,
		"byteLength":860,
		"target":34962,
		"byteStride":20
	},
	{
		"buffer":15,
		"byteOffset":0,
		"byteLength":168,
		"target":34963
	},
	{
		"buffer":15,
		"byteOffset":168,
		"byteLength":720,
		"target":34962,
		"byteStride":20
	},
	{
		"buffer":16,
		"byteOffset":0,
		"byteLength":1176,
		"target":34963
	},
	{
		"buffer":16,
		"byteOffset":1176,
		"byteLength":5980,
		"target":34962,
		"byteStride":20
	},
	{
		"buffer":17,
		"byteOffset":0,
		"byteLength":10776,
		"target":34963
	},
	{
		"buffer":17,
		"byteOffset":10776,
		"byteLength":52160,
		"target":34962,
		"byteStride":20
	},
	{
		"buffer":18,
		"byteOffset":0,
		"byteLength":72,
		"target":34963
	},
	{
		"buffer":18,
		"byteOffset":72,
		"byteLength":420,
		"target":34962,
		"byteStride":20
	},
	{
		"buffer":19,
		"byteOffset":0,
		"byteLength":1248,
		"target":34963
	},
	{
		"buffer":19,
		"byteOffset":1248,
		"byteLength":6700,
		"target":34962,
		"byteStride":20
	},
	{
		"buffer":20,
		"byteOffset":0,
		"byteLength":240,
		"target":34963
	},
	{
		"buffer":20,
		"byteOffset":240,
		"byteLength":960,
		"target":34962,
		"byteStride":20
	}],
	"buffers":[{
		"uri":"data:application/octet-stream;base64,",
		"byteLength":492
	},
	{
		"uri":"data:application/octet-stream;base64,",
		"byteLength":15896
	},
	{
		"uri":"data:application/octet-stream;base64,",
		"byteLength":2400
	},
	{
		"uri":"data:application/octet-stream;base64,",
		"byteLength":35412
	},
	{
		"uri":"data:application/octet-stream;base64,",
		"byteLength":1004
	},
	{
		"uri":"data:application/octet-stream;base64,",
		"byteLength":7284
	},
	{
		"uri":"data:application/octet-stream;base64,",
		"byteLength":7156
	},
	{
		"uri":"data:application/octet-stream;base64,",
		"byteLength":328
	},
	{
		"uri":"data:application/octet-stream;base64,",
		"byteLength":10040
	},
	{
		"uri":"data:application/octet-stream;base64,",
		"byteLength":30148
	},
	{
		"uri":"data:application/octet-stream;base64,",
		"byteLength":15104
	},
	{
		"uri":"data:application/octet-stream;base64,",
		"byteLength":2088
	},
	{
		"uri":"data:application/octet-stream;base64,",
		"byteLength":8752
	},
	{
		"uri":"data:application/octet-stream;base64,",
		"byteLength":33476
	},
	{
		"uri":"data:application/octet-stream;base64,",
		"byteLength":1004
	},
	{
		"uri":"data:application/octet-stream;base64,",
		"byteLength":888
	},
	{
		"uri":"data:application/octet-stream;base64,",
		"byteLength":7156
	},
	{
		"uri":"data:application/octet-stream;base64,",
		"byteLength":62936
	},
	{
		"uri":"data:application/octet-stream;base64,",
		"byteLength":492
	},
	{
		"uri":"data:application/octet-stream;base64,",
		"byteLength":7948
	},
	{
		"uri":"data:application/octet-stream;base64,",
		"byteLength":1200
	}],
	"materials":[{
		"pbrMetallicRoughness":{
			"baseColorFactor":[1.0,
			1.0,
			1.0,
			1.0],
			"metallicFactor":0.0,
			"roughnessFactor":0.5678071905112637
		},
		"emissiveFactor":[0.0,
		0.0,
		0.0],
		"alphaMode":"OPAQUE",
		"doubleSided":false,
		"name":"Color2"
	},
	{
		"pbrMetallicRoughness":{
			"baseColorFactor":[0.117647058823529,
			0.117647058823529,
			0.117647058823529,
			1.0],
			"metallicFactor":0.0,
			"roughnessFactor":0.5678071905112637
		},
		"emissiveFactor":[0.0,
		0.0,
		0.0],
		"alphaMode":"OPAQUE",
		"doubleSided":false,
		"name":"Color1"
	},
	{
		"pbrMetallicRoughness":{
			"baseColorFactor":[1.0,
			1.0,
			1.0,
			1.0],
			"metallicFactor":0.0,
			"roughnessFactor":0.5678071905112637
		},
		"emissiveFactor":[0.0,
		0.0,
		0.0],
		"alphaMode":"OPAQUE",
		"doubleSided":false,
		"name":"Color3"
	}]
}